<svg width="44" height="44" viewBox="0 0 44 44" fill="none" xmlns="http://www.w3.org/2000/svg">
<path d="M2.62347e-07 22C1.1745e-07 34.1509 9.84912 44 22 44C34.1495 44 44 34.1509 44 22C44 9.8505 34.1495 4.07229e-07 22 2.62347e-07C9.84913 1.1745e-07 4.07229e-07 9.8505 2.62347e-07 22ZM41.25 22C41.25 32.615 32.615 41.25 22 41.25C11.385 41.25 2.70738 32.615 2.70738 22C2.70738 11.385 11.385 2.75 22 2.75C32.615 2.75 41.25 11.385 41.25 22Z" fill="#458BDD"/>
<path d="M11.3726 25.0139C10.8309 25.5516 10.8309 26.4219 11.3726 26.9582C11.9157 27.4958 12.7944 27.4958 13.3375 26.9582L21.9794 18.4401L30.6212 26.9596C31.163 27.4972 32.043 27.4972 32.5861 26.9596C33.1279 26.4219 33.1279 25.5516 32.5861 25.0153L22.9625 15.5278C22.4331 15.0053 21.527 15.0039 20.9976 15.5278L11.3726 25.0139Z" fill="#458BDD"/>
</svg>
