<svg width="78" height="53" viewBox="0 0 78 53" fill="none" xmlns="http://www.w3.org/2000/svg">
<path d="M24.3214 0.0451775C22.1254 0.349823 21.2544 0.502148 20.2852 0.736492C12.7773 2.61124 6.28757 7.73166 2.79122 14.5628C-0.312558 20.6089 -0.840078 27.1119 1.27 33.0877C1.77298 34.5172 3.19606 37.177 4.06708 38.3487C7.74745 43.223 13.2557 46.2695 19.4142 46.8554C21.1563 47.0194 24.076 46.9374 25.6708 46.6679C26.7382 46.5039 28.5293 46.0937 28.6274 46C28.6519 45.9766 28.2471 45.5548 27.7196 45.0509L26.775 44.1604L25.7935 44.2893C24.3459 44.4651 21.8678 44.3245 20.3343 43.9847C15.4149 42.8832 11.6732 40.0945 9.53856 35.9584C8.85156 34.6226 8.42218 33.404 8.05415 31.7285C7.64931 29.8772 7.67384 26.8424 8.10322 24.8036C8.69208 21.9915 9.52629 19.9175 10.9739 17.6327C12.8632 14.6448 15.1573 12.3248 18.0647 10.4735C20.776 8.73933 22.7879 7.91913 25.9162 7.27468C27.1675 7.01691 27.7073 6.97004 29.5352 6.95832C31.8907 6.9466 33.1911 7.1458 35.2398 7.82539C39.3741 9.18459 42.8459 12.3599 44.5021 16.2969C46.2686 20.48 46.2318 25.3895 44.4039 30.0295C43.3366 32.7479 41.9994 34.8101 39.5213 37.5519L39.0797 38.0558L39.9139 38.4307L40.7481 38.8057L41.4106 38.1026C42.9808 36.4622 44.7352 33.8727 45.7902 31.6347C47.5445 27.9204 48.2806 24.3818 48.1456 20.3628C47.9248 14.4808 45.6798 9.57125 41.4228 5.65771C38.3804 2.86902 34.6509 1.06457 30.394 0.314671C29.0322 0.0803299 25.2905 -0.0837135 24.3214 0.0451775Z" fill="white"/>
<path d="M39.2882 12.0202C39.3864 12.2545 39.6072 13.0044 39.7912 13.684C40.0611 14.7152 40.1224 15.2659 40.1715 17.164C40.2574 20.0465 40.0243 21.6166 39.1533 24.1475C38.2087 26.9128 36.0372 30.3693 33.7799 32.7479C33.3996 33.1346 33.0929 33.5095 33.0929 33.5798C33.0929 33.7907 35.6201 36.0053 36.5893 36.638L37.5462 37.2825L38.1105 36.6966C40.4414 34.2712 42.5147 30.8497 43.4593 27.897C45.1891 22.5071 43.95 16.9414 40.0366 12.4303C39.2637 11.5398 39.0429 11.4109 39.2882 12.0202Z" fill="white"/>
<path d="M49.213 17.0469C49.2498 17.2344 49.3111 17.5742 49.3602 17.8085L49.4338 18.2538H50.1331C52.0346 18.2538 54.893 18.5818 57.3711 19.0857C63.5787 20.3394 68.5472 23.0109 71.4301 26.6315C72.1417 27.5221 73.1108 29.4202 73.4053 30.4982C73.7242 31.6582 73.7242 34.154 73.4053 35.3609C72.1662 40.0712 66.6211 42.9185 57.9722 43.3168C53.6171 43.516 49.7037 43.1411 46.1583 42.2037C41.4842 40.9617 37.5707 39.2393 34.6878 37.1653C32.59 35.6538 31.2037 33.9548 30.6026 32.1386C30.1855 30.8615 30.2345 29.1976 30.7375 27.7681C31.8294 24.7099 34.2829 22.2024 37.7916 20.5855C38.773 20.1285 38.7975 20.1168 38.8834 19.6247C38.9202 19.3552 38.9693 18.8865 38.9693 18.5818L38.9815 18.0311L37.7302 18.4412C32.4673 20.1871 28.2717 23.3507 26.1861 27.1471C24.9103 29.4554 24.3582 31.5411 24.3582 34.0134C24.3582 35.4429 24.4073 35.8295 24.7263 37.0013C25.1679 38.6182 25.7445 39.8603 26.6768 41.196C27.4497 42.3092 29.2408 44.1605 30.4922 45.1213C34.8718 48.5193 41.4474 50.9799 49.3479 52.1868C50.9918 52.4445 51.8628 52.5031 54.7581 52.55C59.4444 52.632 61.9225 52.3391 65.2348 51.2962C68.4245 50.2886 70.7922 48.9294 72.9759 46.8437C75.6135 44.3362 77.1102 41.6296 77.7481 38.2433C78.6682 33.3572 77.0611 28.8461 73.0372 24.9794C70.8167 22.8586 68.6576 21.4174 65.6642 20.0582C61.2355 18.0546 55.1752 16.7305 50.3539 16.7305H49.1394L49.213 17.0469Z" fill="white"/>
<path d="M49.6546 21.0891C49.6546 22.4249 49.5565 23.5732 49.3356 25.1316L49.2498 25.7526H49.6423C50.3048 25.7526 54.4145 26.3384 55.9112 26.6431C63.4314 28.1897 68.8416 31.3768 71.0498 35.5716C71.2338 35.9231 71.4056 36.1809 71.4424 36.1457C71.4792 36.1223 71.5773 35.5247 71.6755 34.8217C71.9208 33.0524 71.7123 31.2011 71.1111 29.6192C69.7126 25.9752 66.3021 23.1865 61.1864 21.5109C57.9109 20.4447 53.4944 19.6596 50.6974 19.6596H49.6546V21.0891Z" fill="white"/>
<path d="M37.1782 22.7299C35.9636 23.4915 34.1725 25.1905 33.3751 26.3388C32.7249 27.2644 32.0625 28.4361 32.1483 28.5182C32.1729 28.5416 32.7372 28.3073 33.4119 27.9909C34.0744 27.6745 35.0804 27.2761 35.6201 27.1004C36.712 26.7606 36.6507 26.8192 37.2272 25.46C37.5339 24.7335 38.3682 22.3666 38.3682 22.2143C38.3682 22.0268 38.1228 22.1323 37.1782 22.7299Z" fill="white"/>
<path d="M22.15 39.872C20.7269 40.2821 19.083 40.4462 17.0588 40.3642C15.0223 40.2939 15.0223 40.3056 16.9607 41.1375C18.3715 41.7351 19.7455 42.1686 21.1072 42.4381C22.2113 42.6607 25.1556 42.9185 25.4255 42.813C25.5727 42.7662 25.4868 42.567 25.0207 41.8991C24.6894 41.4304 24.2355 40.7157 24.0024 40.3173C23.524 39.4736 23.5362 39.4736 22.15 39.872Z" fill="white"/>
</svg>
