<svg width="151" height="301" viewBox="0 0 151 301" fill="none" xmlns="http://www.w3.org/2000/svg">
<path opacity="0.6" d="M133.756 0C131.99 0 130.213 0.489094 128.692 1.42025C123.968 4.21374 116.098 12.1051 106.697 23.5706L104.732 25.969C102.209 29.0541 99.6016 32.3931 96.9467 35.9108C87.9521 47.9124 79.4866 60.3561 71.5597 73.1478L71.3046 73.5899L70.7094 74.5211C62.9903 87.0588 55.8098 100.001 49.2056 113.169C43.9902 123.6 39.3701 134.285 35.3358 145.214C34.202 148.346 33.1722 151.384 32.1896 154.328C31.396 156.821 30.6685 159.323 29.9693 161.815C28.297 167.647 26.8231 173.525 25.6326 179.357L25.4815 180.137C24.0548 187.144 23.1289 194.199 22.5337 201.356L22.4864 202.081C19.0001 196.447 9.552 190.973 9.552 191.01C16.3452 200.764 21.4566 210.461 22.203 219.97C18.6127 220.713 13.6336 219.632 7.87969 217.525C13.8887 223.008 18.3576 224.523 20.0866 224.927C14.6162 225.266 8.90954 229.037 3.15566 233.345C11.5739 229.921 18.3576 228.558 23.2328 229.667C14.9658 253.229 7.18054 277.044 0 301C2.2203 300.36 3.93985 298.696 4.57287 296.551C6.00898 291.933 15.1547 261.609 29.5252 221.748L30.744 218.315L31.0936 217.384C32.6147 213.217 34.1926 208.956 35.8176 204.592L36.9042 201.61L36.9514 201.563C38.4253 197.604 39.9465 193.54 41.5243 189.458L42.214 187.756L42.847 186.035L43.3856 184.755L42.847 186.082L42.214 187.756L41.5243 189.458C39.9465 193.54 38.4253 197.604 36.9514 201.563L38.2742 204.15L39.4552 204.009L39.6063 203.661C41.5243 198.422 43.3856 193.324 45.313 188.386L45.3602 188.188C43.3856 193.333 41.4676 198.525 39.6063 203.661L39.4552 204.009L38.6143 206.304C37.1404 210.367 35.6192 214.534 34.1453 218.747L34.0981 218.945L33.4556 220.76C32.4258 223.591 31.5377 226.187 29.5725 232.019C32.8604 233.533 35.5153 237.512 38.038 241.961C37.7829 237.211 35.6665 232.79 32.1801 229.573C48.5159 230.298 62.5935 226.187 69.8685 214.336C70.511 213.255 71.1062 212.126 71.6447 210.95C68.3474 215.117 64.2091 216.885 56.4806 216.443C67.8561 211.392 73.5627 206.548 78.5796 198.459C79.8646 196.456 81.0456 194.349 82.1321 192.186C72.1927 202.335 60.7133 205.213 48.5631 203.021L48.034 202.918C58.9087 201.592 73.3643 193.512 82.7179 183.514C86.9979 178.914 90.9472 173.469 94.5374 167.148C97.249 162.398 99.7528 157.15 102.162 151.375C104.278 146.286 106.31 140.803 108.218 134.868C105.015 136.486 101.576 137.567 98.0238 138.103C97.4286 138.207 96.8522 138.291 96.3137 138.395L96.3515 138.348C96.89 138.301 97.4852 138.207 98.0238 138.113C98.5623 138.019 99.1575 137.915 99.6961 137.765L98.0238 138.113L96.3515 138.348C106.489 134.482 112.838 126.986 117.468 117.834C113.774 120.383 109.645 122.133 105.308 123.167C104.581 123.318 103.882 123.468 103.154 123.572L102.616 123.609H102.701L103.154 123.572C103.787 123.421 104.43 123.318 105.119 123.167L105.261 123.12L105.072 123.167L102.653 123.609C106.159 122.142 109.106 120.477 111.657 118.568C113.538 117.1 115.295 115.483 116.825 113.667C117.855 112.501 118.8 111.175 119.688 109.802L120.482 108.475L121.464 106.566C123.175 103.095 124.752 99.5213 126.085 95.8907L126.472 94.8091C126.812 93.7274 127.162 92.7492 127.351 91.9121C127.7 90.68 127.889 89.7018 128.04 88.9776C127.653 89.2691 127.256 89.5701 126.859 89.7582C123.76 91.63 118.545 93.2477 114.312 94.019L113.037 94.1695L84.4941 97.3016L84.343 97.5931L83.3604 99.5965L80.4126 105.729C81.3952 103.622 82.3778 101.562 83.3604 99.5965L84.343 97.5931C84.3902 97.4897 84.4469 97.405 84.4941 97.3016L83.4076 97.405L82.5762 95.7402C80.9511 98.9287 79.3733 102.108 77.8049 105.296L75.2445 110.629C70.4732 120.628 65.9003 130.673 61.5164 140.812C56.7924 151.638 52.2573 162.511 47.8828 173.431L48.9694 170.732C53.0037 160.686 57.1797 150.707 61.5164 140.812C65.9003 130.663 70.4732 120.571 75.2445 110.629L77.8049 105.296C79.326 102.249 80.7999 99.2109 82.3305 96.2293L82.5762 95.7402C84.9854 90.9904 87.4136 86.3346 89.8701 81.7352C92.525 76.8819 95.1894 72.0756 97.8443 67.4292C100.594 62.7264 103.4 58.0235 106.31 53.4242L106.848 52.5871C109.645 48.1852 112.508 43.868 115.352 39.8048C121.162 31.4243 127.558 23.4389 134.55 15.9896L133.804 16.7797C131.791 18.99 125.688 26.0349 116.485 40.1434C125.338 39.7013 138.972 37.8954 150.045 35.9767C153.399 17.551 146.842 9.1423 146.842 9.1423C146.842 9.1423 141.239 0.122274 133.804 0.028217L133.756 0ZM113.046 94.1601C121.361 90.332 125.055 86.9083 128.692 81.9045C129.628 80.5407 130.61 79.1204 131.536 77.6061C134.493 73.0444 137.347 68.05 139.898 63.0462C142.42 58.2022 144.584 53.4524 146.247 49.1352C147.239 46.6897 148.07 44.1408 148.817 41.5824C149.308 39.6261 149.752 37.7731 150.035 35.9484C138.915 37.8672 125.281 39.6731 116.429 40.0587C113.377 44.7145 110.486 49.4173 107.67 54.1672C105.11 58.4844 102.351 63.2343 99.4599 68.4262C94.2446 77.8789 89.2182 87.5291 84.4469 97.2357L112.99 94.1507L113.046 94.1601ZM114.076 94.0566L112.791 94.2541L114.076 94.0002V94.0566ZM77.0679 112.614L75.3956 116.198C71.418 124.86 67.5254 133.579 63.7934 142.355C59.4567 152.541 55.2807 162.737 51.2369 173.017C49.3756 177.767 47.4577 182.611 45.5775 187.615L45.4736 187.812C54.5343 163.555 64.4737 139.655 75.3956 116.188L77.0679 112.614Z" fill="#B9D8FD"/>
</svg>
