<svg width="46" height="41" viewBox="0 0 46 41" fill="none" xmlns="http://www.w3.org/2000/svg">
<path d="M33.6801 0.0330353C33.3478 0.0616684 32.8811 0.140411 32.6477 0.204838C32.4073 0.269264 32.1245 0.319374 32.0255 0.319374C31.9194 0.319374 31.6861 0.398117 31.5022 0.49118C31.3184 0.58424 30.9153 0.763203 30.6042 0.884895C29.883 1.16408 29.0557 1.6437 28.3839 2.16627C27.3798 2.93938 25.9585 4.49994 25.7181 5.07977C25.6616 5.2301 25.4989 5.50928 25.3646 5.70256C25.2302 5.903 25.1242 6.10344 25.1242 6.15355C25.1242 6.20366 24.9969 6.49716 24.8343 6.80497C24.5373 7.37049 24.4241 7.66399 24.0352 8.81651C23.915 9.18159 23.7948 9.48225 23.7665 9.48225C23.7312 9.48225 23.71 9.34624 23.71 9.18159C23.71 8.78072 23.314 8.07919 22.8968 7.72842C22.3665 7.29175 21.4614 6.71191 20.6694 6.30388C18.9017 5.38759 18.0036 5.15852 16.0733 5.15852C14.9914 5.15852 14.6237 5.18715 13.959 5.31601C13.5135 5.40907 13.0681 5.5236 12.962 5.58087C12.8559 5.63814 12.566 5.7312 12.3185 5.78847C11.6609 5.94595 9.74469 6.79066 9.28507 7.13426C9.18608 7.20585 8.82545 7.45639 8.48604 7.68547C7.67288 8.22235 6.73243 9.06706 6.01119 9.89744C5.65763 10.3055 5.21216 10.7207 4.86568 10.9641C3.31713 12.0665 1.84635 14.0136 1.20289 15.8175C0.828125 16.877 0.665492 18.7525 0.79277 20.5779C0.905906 22.3174 1.2241 23.6203 1.85342 24.9804C2.53224 26.4264 3.33834 27.5217 4.88689 29.0751C6.40009 30.5927 6.93042 31.0365 8.82545 32.3536C9.21436 32.6257 9.78004 33.0337 10.0912 33.2628C10.8619 33.8355 13.4287 35.4676 13.563 35.4676C13.6267 35.4676 14.1924 35.8184 14.8217 36.2407C15.451 36.6631 16.1086 37.0926 16.2854 37.1999C16.4622 37.3002 16.7945 37.565 17.0278 37.7798C17.2612 37.9945 17.5511 38.2165 17.6642 38.2809C17.7844 38.3381 18.0673 38.5672 18.3006 38.7891C18.534 39.011 18.7602 39.19 18.7956 39.19C18.838 39.19 19.1138 39.4119 19.4178 39.6911C19.7219 39.9631 19.9835 40.1922 20.0047 40.1922C20.0189 40.1922 19.8987 39.9774 19.736 39.7126C19.4037 39.1829 17.8127 37.5221 17.1975 37.0639C16.9854 36.9064 16.6319 36.5986 16.3985 36.3767C16.1722 36.1548 15.7126 35.7826 15.3732 35.5607C15.0409 35.3316 14.5813 35.0094 14.355 34.8376C14.1287 34.6658 13.9024 34.5441 13.8459 34.5656C13.7893 34.5871 13.4923 34.4225 13.1741 34.2077C12.863 33.9929 12.5731 33.8355 12.5377 33.8569C12.4741 33.8999 11.7246 33.3558 11.5478 33.1482C11.4983 33.0838 11.4205 33.0337 11.364 33.0337C11.3145 33.0337 11.1518 32.8977 11.0033 32.7402C10.8548 32.5756 10.671 32.4181 10.5932 32.3823C10.1407 32.1747 9.47599 31.6879 9.53256 31.602C9.55377 31.5734 9.51841 31.5233 9.45477 31.5018C9.28507 31.4374 9.23557 31.4517 9.35578 31.5304C9.41942 31.5734 9.42649 31.602 9.37699 31.602C9.29921 31.602 9.07294 31.4159 9.07294 31.3515C9.07294 31.33 9.12951 31.3371 9.19315 31.3658C9.26386 31.3872 9.05173 31.2011 8.72646 30.9506C8.39412 30.7 7.99814 30.3922 7.84258 30.2705C7.67995 30.1488 7.2769 29.7909 6.94456 29.4831C6.61222 29.1753 6.03947 28.6599 5.67885 28.3449C4.85154 27.6219 4.83033 27.6004 4.83033 27.5073C4.83033 27.4644 4.65355 27.2425 4.44142 27.0134C4.22929 26.7843 4.05251 26.5409 4.05251 26.4694C4.05251 26.3906 4.01716 26.2976 3.97473 26.2546C3.9323 26.2117 3.85452 26.0971 3.8121 26.0041C3.76967 25.9182 3.67068 25.8323 3.5929 25.8179C3.35955 25.775 3.2252 25.6032 3.03428 25.1236C2.93529 24.873 2.79387 24.5652 2.70902 24.4292C2.63124 24.3003 2.5676 24.1142 2.5676 24.0283C2.5676 23.9353 2.47567 23.6203 2.35547 23.3339C2.12212 22.7398 2.05141 22.3031 2.04434 21.4727C2.03727 21.0575 2.00192 20.8499 1.91706 20.7211C1.83221 20.5922 1.79686 20.399 1.80393 20.0267C1.80393 19.7475 1.78978 19.4898 1.77564 19.454C1.70493 19.3395 1.98777 17.2922 2.12919 16.8555C2.17162 16.7195 2.27769 16.3616 2.36254 16.0681C2.44032 15.7746 2.60295 15.388 2.70902 15.2234C2.82215 15.0516 2.92822 14.8726 2.94236 14.8296C2.9565 14.7795 2.99186 14.7652 3.02014 14.7867C3.04136 14.8082 3.01307 14.9442 2.9565 15.0874C2.89994 15.2305 2.80094 15.6743 2.7373 16.0824C2.37668 18.5091 2.5181 20.5278 3.15449 22.0096C3.86159 23.6632 5.3253 25.3956 7.87087 27.6004C9.43356 28.9534 9.90025 29.3184 11.1589 30.2061C11.8236 30.6714 12.5519 31.2011 12.7852 31.3872C13.457 31.917 15.7621 33.4561 16.1298 33.6135C16.3137 33.6923 16.5541 33.8355 16.6743 33.9214C17.0349 34.1934 18.5552 35.2528 18.5905 35.2528C18.6612 35.2528 19.3684 35.8184 19.5734 36.0403C19.6936 36.162 19.8987 36.3266 20.033 36.3982C20.1674 36.4698 20.4714 36.706 20.7048 36.9279C20.9381 37.1498 21.1644 37.3288 21.1997 37.3288C21.2422 37.3288 21.5109 37.5364 21.8008 37.7941C22.0907 38.0447 22.3382 38.2379 22.3523 38.2236C22.3665 38.2093 22.1897 37.9301 21.9634 37.6008C21.5179 36.978 20.3159 35.7325 19.7078 35.2743C19.5098 35.124 19.1421 34.8019 18.8946 34.5513C18.6471 34.3079 18.2228 33.95 17.9471 33.7639C17.6784 33.5777 17.247 33.2556 16.9925 33.048C16.745 32.8404 16.4904 32.6758 16.4268 32.6829C16.2217 32.7044 16.144 32.6758 16.0167 32.5469C15.7551 32.2892 15.2247 31.9528 15.154 31.9957C15.1116 32.0244 14.8783 31.8669 14.6378 31.6521C14.3974 31.4445 14.1217 31.2226 14.0297 31.1797C13.9378 31.1295 13.7681 30.9792 13.655 30.8432C13.5348 30.7072 13.2166 30.4638 12.9549 30.3063C12.6862 30.1488 12.3963 29.9198 12.3044 29.8052C12.2195 29.6835 11.9933 29.4688 11.7953 29.3399C11.4629 29.1037 10.869 28.6455 10.2467 28.1445C10.0912 28.0156 9.7659 27.7364 9.53256 27.5145C9.29214 27.2926 9.00223 27.0492 8.88909 26.9776C8.21735 26.5553 6.59808 25.052 6.59808 24.8515C6.59808 24.7943 6.54858 24.7298 6.49202 24.7012C6.43545 24.6797 6.38595 24.6225 6.38595 24.5795C6.38595 24.4578 6.16675 24.3075 5.98997 24.3003C5.84148 24.3003 5.39601 23.8637 5.39601 23.7277C5.39601 23.6919 5.30408 23.5559 5.19802 23.427C5.0071 23.2051 4.20807 21.8521 4.09494 21.5443C3.96059 21.215 3.89695 20.8714 3.87574 20.3703C3.85452 20.0196 3.8121 19.8191 3.74139 19.7619C3.58582 19.6402 3.53633 18.1369 3.67068 17.3709C3.72725 17.0488 3.79088 16.6622 3.8121 16.5119C3.83331 16.3687 3.86867 16.2256 3.88281 16.2041C3.88988 16.1826 3.9818 15.8605 4.0808 15.4811C4.3495 14.4789 5.74249 11.7944 6.2021 11.3936C6.37181 11.2504 7.58095 10.6491 7.83551 10.5847C7.9345 10.5632 8.01229 10.5131 8.01229 10.4773C8.01229 10.4486 8.13249 10.3985 8.28098 10.3699C8.4224 10.3484 8.81838 10.2196 9.15072 10.0907C9.48306 9.95471 10.0205 9.79722 10.3528 9.7328C10.6781 9.66837 11.1801 9.56815 11.47 9.51088C11.7529 9.45362 12.1418 9.41067 12.3327 9.41067C12.5165 9.41067 12.8559 9.36056 13.0822 9.30329C13.6267 9.16012 15.7409 9.16012 17.5582 9.31045C18.3148 9.36771 19.0997 9.43214 19.2906 9.4393C19.7785 9.47509 20.726 9.6111 20.8108 9.66121C20.8462 9.68269 21.0795 9.7328 21.32 9.77575C21.822 9.85449 22.1543 9.96903 22.1543 10.0692C22.1543 10.1551 21.5745 11.1931 21.1997 11.773C21.0371 12.0307 20.4714 13.0329 19.9411 13.9993C19.0289 15.6672 17.8127 17.7789 17.4804 18.2514C17.3814 18.3946 17.346 18.4161 17.3743 18.323C17.4733 17.9364 17.6501 16.7982 17.841 15.252C17.9966 13.9778 18.0531 13.2405 18.0531 12.3743C18.0531 11.73 18.039 11.2003 18.0178 11.2003C17.9966 11.2003 17.8127 11.322 17.6077 11.4723C17.4026 11.6226 17.1622 11.7944 17.0632 11.8446C16.8157 11.9734 15.8328 12.8181 15.352 13.3192C14.2348 14.4789 13.0822 15.9392 12.2832 17.2206C12.0569 17.5857 11.8589 17.8434 11.8448 17.7933C11.8306 17.7432 11.8519 17.5212 11.8872 17.2993C12.0993 16.1898 12.3822 13.083 12.4387 11.3793L12.4741 10.1623L11.965 11.0213C11.6892 11.4938 11.4347 11.8875 11.3993 11.9018C11.364 11.9161 11.3357 11.9662 11.3357 12.0092C11.3357 12.0522 11.1094 12.4745 10.8266 12.9541C10.2326 13.9635 9.87904 14.5719 9.35578 15.4739C9.14365 15.839 8.96687 16.1253 8.95273 16.111C8.93859 16.1039 8.97394 15.839 9.03758 15.524C9.09415 15.2162 9.19315 14.5361 9.24971 14.0279C9.31335 13.5125 9.40528 12.7752 9.46185 12.3814C9.51841 11.9949 9.5467 11.6584 9.53256 11.637C9.43356 11.5439 8.10421 12.3958 7.60217 12.8682C7.04356 13.3979 6.8385 13.899 6.66172 15.1303C6.59101 15.6672 6.47787 16.3759 6.41423 16.7052C6.35767 17.0345 6.32231 17.3136 6.33645 17.3351C6.40009 17.3924 6.95163 16.4618 7.02941 16.1754C7.39004 14.7867 7.86379 13.7344 8.18199 13.6127C8.33048 13.5554 8.33048 13.6914 8.15371 15.0301C7.82137 17.6215 7.51731 18.867 6.91628 20.1484C6.66879 20.6781 6.35767 21.4226 6.22332 21.7949C6.08897 22.1671 5.86977 22.6682 5.72834 22.9044C5.50207 23.2981 5.48793 23.3411 5.58692 23.4914C5.68592 23.6418 6.06068 23.8207 6.32938 23.8422C6.49202 23.8565 6.54858 23.7778 6.72536 23.2981C7.24862 21.8664 8.92445 18.4805 10.3387 15.9965C11.1447 14.5863 11.1306 14.5791 10.9538 16.1039C10.8195 17.2277 10.6074 18.5735 10.3457 19.8979C10.1124 21.0933 9.44063 23.8207 9.21436 24.4721C9.00223 25.1021 9.0093 25.1236 9.49013 25.2882C9.8154 25.4027 9.9356 25.4171 10.0063 25.3526C10.1195 25.2524 10.4871 24.1786 10.6922 23.3268C11.2013 21.2079 12.8418 17.9651 14.3055 16.1826C14.5601 15.8748 14.9136 15.4453 15.0904 15.2234C15.4581 14.7581 16.7238 13.5626 16.8369 13.5626C16.8935 13.5626 16.9076 13.67 16.8864 13.8633C16.8652 14.0351 16.7804 14.7366 16.7026 15.4238C16.3985 18.1583 15.5571 22.0526 14.7298 24.5724C14.3974 25.6032 13.86 27.6505 13.8035 28.123C13.7752 28.3234 13.7893 28.3377 14.1641 28.4236C14.7651 28.5668 14.7863 28.5596 14.8712 28.216C14.9136 28.0514 15.154 27.2568 15.4015 26.4479C15.649 25.639 15.9035 24.7871 15.9601 24.5437C16.2217 23.5129 17.5087 20.6996 18.7532 18.4304C19.6653 16.7768 21.5887 13.4695 21.7159 13.3478C21.7654 13.2977 21.6735 15.2448 21.5887 16.1468C21.3553 18.4805 20.6058 21.9094 19.7431 24.5151C19.4037 25.5602 18.4138 28.2948 18.1663 28.8961C18.1026 29.0464 18.0531 29.2039 18.0531 29.2612C18.0531 29.3542 18.8946 29.8124 19.0643 29.8124C19.1491 29.8124 19.5734 29.0751 20.528 27.2353C21.0513 26.2331 23.915 20.4061 24.3746 19.3968C24.9403 18.1798 27.2667 13.491 27.295 13.5196C27.401 13.6199 26.998 15.9321 26.6727 17.1418C26.4535 17.9508 25.9798 19.3467 25.8313 19.6545C25.7535 19.7976 25.6474 20.0482 25.5979 20.1985C25.5484 20.356 25.3646 20.6996 25.1878 20.9716C25.0181 21.2365 24.7494 21.6803 24.5938 21.9452C24.4383 22.2101 24.113 22.7541 23.8726 23.155C23.6322 23.563 23.3352 24.1285 23.215 24.422C23.0948 24.7155 22.8614 25.1737 22.7059 25.4314C22.1614 26.319 21.7371 27.3355 21.1573 29.1323C20.6906 30.5712 20.1886 31.9671 19.8421 32.8046C19.7926 32.9192 20.33 33.1626 20.6977 33.1912L20.9735 33.2127L21.1361 32.6042C21.3482 31.7953 21.8008 30.8146 24.3676 25.5889C25.5555 23.1693 26.5949 20.9931 26.6727 20.7497C27.1182 19.3896 27.2455 19.1462 28.9637 16.5334C29.3456 15.9392 29.7486 15.2949 29.8405 15.1017C30.0173 14.7509 32.8245 10.4844 33.0154 10.2697C33.1003 10.1838 33.1144 10.2411 33.1144 10.6491C33.1144 11.6871 32.676 14.1281 32.1598 15.9607C32.0608 16.3115 31.9123 16.877 31.8346 17.2134C31.7568 17.5499 31.6154 18.1297 31.5234 18.502C31.3537 19.1892 30.9507 20.4634 30.5618 21.5801C30.4416 21.9166 30.2577 22.5107 30.1517 22.9044C30.0385 23.2981 29.9042 23.7635 29.8405 23.9424C29.784 24.1214 29.6779 24.4435 29.6143 24.6583C29.5506 24.873 29.4516 25.145 29.4021 25.2667C29.2466 25.6318 28.596 27.5431 28.5536 27.7722C28.5041 28.0013 28.7587 27.4429 29.2678 26.1973C29.4446 25.7607 29.7274 25.1021 29.8971 24.7298C30.385 23.6274 30.6537 22.9044 31.5164 20.2916C32.6689 16.7911 33.0225 15.5025 33.3973 13.4194C33.4821 12.9684 33.6235 12.1738 33.7155 11.6656C33.8074 11.1502 33.9064 10.4272 33.9417 10.0549C34.0195 9.04558 34.0124 7.26311 33.9276 7.26311C33.8922 7.26311 33.5811 7.70694 33.2488 8.24383C32.9094 8.78788 32.4215 9.56099 32.1528 9.96903C31.8841 10.3699 31.5376 10.8996 31.3891 11.1502C31.2406 11.3936 30.6466 12.2526 30.081 13.0615C28.6597 15.0659 28.5678 15.209 28.5465 15.3952C28.5324 15.5813 28.292 16.0036 28.1293 16.1397C28.0021 16.247 28.0021 16.2757 28.1364 15.5884C28.193 15.2806 28.2708 14.5934 28.3061 14.0637C28.3415 13.534 28.4051 12.8539 28.4475 12.5604C28.5041 12.1524 28.49 11.7085 28.4122 10.6992C28.3486 9.96903 28.292 9.34624 28.2849 9.31045C28.2708 9.27465 27.8394 10.0836 27.3233 11.1001C26.8 12.1166 26.2555 13.1331 26.107 13.3478C25.9585 13.5626 25.7181 13.9849 25.5767 14.2784C25.4353 14.5719 25.2444 14.9012 25.1524 15.0086C24.9686 15.2377 24.7423 15.8175 24.5585 16.5334C24.4383 17.0201 23.9574 18.0653 23.1089 19.6831C22.8827 20.1126 22.515 20.8714 22.2887 21.3654C21.8432 22.3318 21.221 23.5201 21.1856 23.4843C21.1715 23.47 21.2422 23.2051 21.3341 22.8973C21.6028 22.0311 21.921 20.7282 21.9705 20.2916C21.9917 20.0768 22.0907 19.5399 22.1826 19.1104C22.7342 16.5692 22.9604 13.627 22.7907 11.1717C22.7554 10.6562 22.7483 10.2124 22.7766 10.1909C22.8049 10.1623 23.0241 10.2053 23.2716 10.284L23.71 10.4343V10.8495C23.71 11.0858 23.7312 11.2719 23.7665 11.2719C23.9009 11.2719 24.1484 11.0213 24.2827 10.7636C24.3605 10.6061 24.4736 10.4558 24.5302 10.4343C24.5868 10.4129 24.6292 10.3413 24.6221 10.2768C24.6151 10.2124 24.6221 10.1122 24.6433 10.0549C24.6645 9.99766 24.7211 9.80438 24.7706 9.62542C24.9474 8.9382 25.5767 7.28459 25.8454 6.80497C26.1707 6.21082 27.0263 5.01535 27.0828 5.06546C27.1041 5.08693 27.0404 5.24442 26.9343 5.41623C26.4323 6.27524 26.1707 6.93383 26.1353 7.45639C26.0929 7.97181 26.1 7.97181 26.2626 7.92886C26.6232 7.84295 27.0263 7.32754 27.5071 6.34683C27.7617 5.8171 28.1152 5.20147 28.2849 4.9724C28.6385 4.49994 29.586 3.56933 30.0527 3.2472C30.7668 2.74611 31.6154 2.54567 32.372 2.68884C32.6053 2.73179 32.8952 2.7819 33.0084 2.80337C33.3336 2.86064 34.366 3.58365 34.9458 4.16349C35.858 5.07977 36.9964 6.84792 37.5621 8.25815C38.0571 9.46793 38.4248 10.9068 38.552 12.1667C38.5945 12.5175 38.6581 13.1259 38.7076 13.5125C39.0258 16.0537 37.8096 19.9265 35.6176 23.2981C33.9771 25.8251 32.2164 28.2447 31.6295 28.7744C31.4527 28.9319 31.1558 29.2254 30.9578 29.4258C30.7668 29.6263 30.1446 30.156 29.5789 30.6141C29.0132 31.0651 28.3627 31.6092 28.1293 31.8239C27.896 32.0458 27.4505 32.4181 27.1323 32.6615C26.8141 32.8977 26.4747 33.1983 26.3757 33.3129C26.2767 33.4346 26.008 33.7066 25.7747 33.907C25.3999 34.2435 24.4171 35.3602 24.1342 35.7754C24.0777 35.8613 24.1837 35.804 24.3817 35.6394C24.5797 35.4748 24.905 35.2314 25.11 35.081C25.308 34.9379 25.7747 34.5728 26.1353 34.265C26.4959 33.9643 26.998 33.5634 27.2455 33.3773C27.5 33.184 27.8819 32.8905 28.094 32.7116C28.3061 32.5398 28.5183 32.3966 28.5607 32.3894C28.6031 32.3894 28.695 32.325 28.7657 32.2463C28.8365 32.1675 28.9284 32.1031 28.9779 32.1031C29.0274 32.1031 29.1971 32.0029 29.3526 31.8883C29.5153 31.7666 29.6496 31.6879 29.6496 31.7022C29.6496 31.7881 28.9991 32.7044 28.6597 33.1053C28.4405 33.363 28.2425 33.6207 28.2213 33.678C28.2001 33.7352 28.0445 33.9643 27.8748 34.1791C27.7051 34.3938 27.5 34.7016 27.4222 34.8591C27.3515 35.0166 27.203 35.2743 27.1041 35.4318C26.7929 35.9114 26.7859 35.9329 27.0051 35.7754C27.2525 35.5893 27.9455 34.8734 28.7233 34.0001C29.0344 33.6422 29.5648 33.0623 29.8971 32.7116C30.7173 31.8311 31.6366 30.6857 31.6154 30.5712C31.6012 30.5139 31.7639 30.2634 31.9689 30.0057C32.1669 29.7551 32.3366 29.5117 32.3366 29.4759C32.3366 29.433 32.4639 29.3113 32.6195 29.2039C32.775 29.0965 32.8952 28.9605 32.8881 28.9176C32.874 28.8675 33.0932 28.6742 33.3619 28.4881C33.6377 28.3019 33.97 28.0442 34.1044 27.9154C34.2387 27.7865 34.4296 27.6577 34.5216 27.629C34.6206 27.6004 35.0024 27.2711 35.3772 26.906C35.7519 26.5338 36.1125 26.2331 36.1762 26.2331C36.3035 26.2331 36.2115 26.319 38.1561 24.3862C38.9622 23.5916 39.6198 22.9116 39.6198 22.8686C39.6198 22.8328 39.6763 22.7613 39.747 22.7112C39.8248 22.661 39.9238 22.5393 39.9733 22.4463C40.0723 22.2458 40.7582 21.3367 41.1259 20.9001C41.2602 20.7426 41.4724 20.4347 41.6067 20.22C41.734 20.0052 41.9956 19.6688 42.1936 19.4755C42.4906 19.1749 42.5472 19.0818 42.5613 18.8241C42.5755 18.5163 42.731 18.144 42.9219 17.9221C43.1199 17.6859 43.8553 16.2112 44.1028 15.524C44.2513 15.1303 44.3927 14.7652 44.421 14.708C44.4563 14.6507 44.5341 14.4145 44.5978 14.1854C44.6614 13.9635 44.7392 13.7773 44.7745 13.7773C44.8806 13.7773 45.0715 12.9326 45.022 12.6749C44.9937 12.5175 45.022 12.2955 45.0927 12.0736C45.1564 11.8803 45.2059 11.5654 45.1988 11.3721C45.1917 11.1788 45.2129 10.599 45.2342 10.0907C45.3049 8.77356 45.1493 7.90738 44.5553 6.18934C44.0392 4.69321 43.3391 3.76261 41.6562 2.30944C41.034 1.77255 40.1077 1.21419 39.2662 0.856262C38.552 0.555607 37.6328 0.247791 37.449 0.247791C37.357 0.247791 37.1732 0.204838 37.0388 0.147572C36.756 0.0258751 34.6135 -0.0457077 33.6801 0.0330353ZM36.5792 1.20703C38.7783 1.65086 40.539 2.56714 41.7976 3.93441C43.028 5.2659 43.523 6.32535 44.0887 8.83799C44.1311 9.01695 44.1594 9.68985 44.1594 10.3413C44.1594 11.3506 44.1311 11.637 43.9755 12.317C43.1411 15.9822 40.942 19.9623 38.2763 22.6539C38.0995 22.8328 37.5904 23.3626 37.1449 23.8279C35.7307 25.324 35.2923 25.6605 36.1055 24.6368C36.2681 24.4363 36.4802 24.1071 36.5792 23.9066C36.6782 23.7133 36.8409 23.4127 36.954 23.2337C37.0601 23.0548 37.1449 22.8615 37.1449 22.7971C37.1449 22.7326 37.2156 22.6181 37.2934 22.5393C37.3783 22.4678 37.5197 22.2387 37.6116 22.0454C37.7035 21.845 37.8944 21.5443 38.0288 21.3725C38.2409 21.1148 38.2763 21.0289 38.2338 20.8285C38.2056 20.6495 38.2409 20.492 38.4035 20.177C38.8844 19.2393 39.2309 18.2872 39.4783 17.2277C39.5066 17.0989 39.5632 16.9557 39.5986 16.9056C39.6339 16.8555 39.7046 16.698 39.7541 16.5477C39.8248 16.3401 39.8248 16.2542 39.7612 16.1754C39.7046 16.111 39.6905 15.9535 39.7188 15.7316C39.8885 14.4502 39.8602 12.8396 39.6622 11.7801C39.5986 11.4508 39.5491 11.0714 39.5491 10.9354C39.5491 10.5847 39.2521 9.56815 38.9056 8.73061C38.743 8.33689 38.5733 7.87875 38.5238 7.7141C38.4743 7.54946 38.1914 6.96962 37.8874 6.42557C37.1803 5.13704 37.0671 4.96524 36.8833 4.77196C36.7914 4.68606 36.7206 4.57152 36.7206 4.52141C36.7206 4.42119 35.4974 3.16846 34.96 2.71747C34.7832 2.5743 34.4791 2.37386 34.2882 2.27364C34.0902 2.17342 33.8781 2.04457 33.8074 1.9873C33.6872 1.87993 32.3649 1.53632 32.0608 1.53632C31.7002 1.53632 32.0326 1.40031 32.6548 1.28577C34.1963 1.02091 35.5256 0.992271 36.5792 1.20703ZM17.7137 6.37546C18.0744 6.43989 18.4986 6.53295 18.6542 6.58306C18.8097 6.63317 19.0643 6.69759 19.2199 6.72623C19.3754 6.7477 19.5663 6.81213 19.6441 6.86224C19.7219 6.91951 19.8845 6.97678 19.9977 7.00541C20.4219 7.09847 21.6594 7.9217 22.522 8.67334C22.7059 8.84514 22.9604 9.03127 23.0806 9.09569C23.2008 9.15296 23.2857 9.21739 23.2716 9.2317C23.2574 9.25318 22.7483 9.15296 22.1473 9.02411C19.6653 8.4729 19.3259 8.40848 18.6542 8.29394C17.7137 8.14361 14.2419 8.07203 13.3509 8.19372C13.0044 8.23667 12.4387 8.3011 12.0923 8.33689C11.364 8.40848 9.5962 8.78072 9.00223 8.98116C8.46483 9.16728 8.33755 9.16012 8.63454 8.974C8.75474 8.88809 8.86081 8.79503 8.86081 8.75924C8.86081 8.72345 8.94566 8.65187 9.0588 8.60891C9.16486 8.5588 9.49013 8.35121 9.78004 8.15077C10.07 7.95033 10.5013 7.68547 10.7346 7.56377C11.4064 7.22733 12.5943 6.76202 12.7923 6.76202C12.8842 6.76202 13.0822 6.69759 13.2307 6.62601C13.3721 6.55442 13.7327 6.4542 14.0227 6.41125C14.3126 6.36831 14.6308 6.3182 14.7298 6.30388C15.2601 6.22514 17.1198 6.26809 17.7137 6.37546Z" fill="white"/>
</svg>
