<svg width="43" height="44" viewBox="0 0 43 44" fill="none" xmlns="http://www.w3.org/2000/svg">
<path d="M41.1657 0.134254C39.1852 0.968922 37.1965 2.54825 35.8242 4.36488C34.3203 6.35335 33.0055 9.56928 32.7014 11.9996C32.6521 12.3761 32.5535 12.5479 31.8797 13.448C29.2746 16.9095 25.059 21.1401 20.9501 24.4215C15.625 28.6766 9.27277 32.6781 2.68217 35.9268C1.31803 36.606 0.159338 37.2197 0.118249 37.3016C-0.0954108 37.6943 0.110032 38.1444 0.496263 38.1444C0.644182 38.1444 1.62209 37.7107 2.91227 37.0724C12.2476 32.4572 21.1391 26.3036 27.3188 20.2072C29.5294 18.0223 31.2222 16.1075 32.8083 13.9963L33.6054 12.9325L34.5668 12.4415C37.2129 11.0913 39.1605 9.09467 40.4261 6.41882C41.2232 4.74948 41.6012 3.16198 41.6752 1.18987C41.7327 -0.152153 41.7491 -0.111237 41.1657 0.134254Z" fill="#B9D8FD"/>
<path d="M27.664 5.28137C24.3029 10.6249 22.5279 15.5756 22.7498 19.0125C22.7991 19.9126 23.0292 20.9437 23.1853 20.9928C23.2429 21.0173 23.7934 20.5182 24.418 19.8963C26.5628 17.7687 27.9023 15.6329 28.7405 13.0389C29.5376 10.5758 29.5376 7.58899 28.7323 5.0277C28.609 4.62673 28.4611 4.28304 28.4118 4.26668C28.3625 4.25031 28.0256 4.70856 27.664 5.28137Z" fill="#B9D8FD"/>
<path d="M16.8988 8.04725C14.1294 10.9604 12.3708 14.6919 11.6888 19.1107C11.4422 20.7064 11.4176 24.1596 11.6477 25.7226C11.8038 26.8191 12.1818 28.6848 12.2804 28.8649C12.3215 28.9467 12.4695 28.8158 12.7899 28.3739C13.9322 26.8355 14.8033 25.428 15.6168 23.7996C16.8824 21.2792 17.6055 19.0616 18.0904 16.2221C18.2876 15.0356 18.3122 14.7328 18.3122 12.7525C18.3122 10.7476 18.2958 10.494 18.0904 9.39745C17.8931 8.30092 17.6548 7.35169 17.5891 7.35169C17.5726 7.35169 17.2604 7.66265 16.8988 8.04725Z" fill="#B9D8FD"/>
<path d="M2.80544 14.7327C1.98367 15.821 1.1126 17.5231 0.660623 18.9142C-0.68708 23.0466 0.0442953 27.9892 2.69861 32.6781C3.13415 33.4555 3.72582 34.3556 3.79978 34.3556C3.90661 34.3556 4.60512 33.1118 5.08996 32.0562C6.0843 29.904 6.49519 28.1447 6.57737 25.7225C6.6842 22.5639 6.01034 19.6425 4.48185 16.7212C3.8984 15.6001 3.19167 14.4708 3.07663 14.4708C3.03554 14.4708 2.91227 14.5936 2.80544 14.7327Z" fill="#B9D8FD"/>
<path d="M41.5765 14.8065C37.0075 15.1584 32.2001 16.9586 28.5515 19.6836C27.4257 20.5264 26.2177 21.6229 25.3137 22.6131C24.5084 23.505 23.7852 24.397 23.7852 24.5034C23.7852 24.5361 24.2783 24.5361 24.8782 24.5116C29.3322 24.2906 33.5396 23.1941 36.6459 21.4511C37.5827 20.9274 37.6813 20.8619 38.7086 20.1009C40.3685 18.8734 41.9381 17.0241 42.8421 15.2238C42.9407 15.0356 42.9982 14.8392 42.9735 14.7983C42.916 14.7083 42.8832 14.7083 41.5765 14.8065Z" fill="#B9D8FD"/>
<path d="M25.5274 27.2447C21.9938 27.6948 18.871 29.0777 15.7894 31.5245C14.943 32.1873 14.9348 32.1545 16.0441 32.5391C21.6897 34.5113 26.9819 34.5849 30.6388 32.7519C32.3563 31.8927 33.819 30.5752 34.8216 28.9795L35.0435 28.6277L34.8545 28.5131C34.2874 28.1449 31.8139 27.4902 30.195 27.2693C29.2582 27.1465 26.4067 27.1302 25.5274 27.2447Z" fill="#B9D8FD"/>
<path d="M12.8557 36.6142C10.9081 36.8024 8.20447 37.4734 6.16648 38.2835L5.27075 38.6436L5.63233 38.9627C5.82956 39.1346 6.34727 39.5437 6.77459 39.8629C12.0175 43.7743 17.4083 44.9772 21.7062 43.1933C22.8566 42.7187 24.9357 41.3767 24.9357 41.1149C24.9357 40.9348 23.2429 39.3801 22.5526 38.93C20.1694 37.367 17.8027 36.6633 14.7458 36.606C13.9076 36.5978 13.0611 36.5978 12.8557 36.6142Z" fill="#B9D8FD"/>
</svg>
