<svg width="405" height="402" viewBox="0 0 405 402" fill="none" xmlns="http://www.w3.org/2000/svg">
<path d="M367.242 183.506C345.806 174.342 345.976 174.408 338.776 173.085C330.862 171.706 326.199 172.069 320.027 174.484C315.241 176.421 308.835 181.479 305.298 186.069C299.915 193.195 298.883 195.84 301.153 196.972C302.06 197.388 308.189 196.924 316.243 195.788C324.714 194.546 328.649 194.198 333.404 194.141C337.544 194.083 338.896 194.434 337.867 195.157C336.879 195.851 329.197 197.778 323.794 198.662C307.419 201.429 303.616 202.49 302.017 204.852C301.25 205.948 301.325 206.143 302.738 207.629C305.271 210.185 311.134 214.244 314.318 215.539C326.093 220.401 341.979 216.676 358.18 205.173C367.33 198.684 375.374 191.671 375.416 190.155C375.391 187.756 373.515 186.224 367.242 183.506Z" fill="#B9D8FD"/>
<path d="M232.643 10.871C231.709 9.97848 228.531 9.9182 227.297 10.7856C226.597 11.2771 222.183 18.0324 212.992 32.6028C201.889 50.3133 198.989 62.1998 202.662 75.479C204.885 83.4573 211.009 92.3507 219.151 99.3924C222.621 102.407 224.342 102.932 225.697 101.361C226.387 100.505 226.821 93.5094 227.19 77.1441C227.385 68.5825 228.654 56.9122 229.436 56.3629C231.123 55.1775 231.795 62.697 232.136 85.9357C232.192 91.9669 233.017 97.9541 234.074 100.247C234.684 101.553 235.099 101.881 236.194 102.041C237.542 102.209 237.901 102.019 241.532 98.7874C246.269 94.5926 249.345 91.0075 251.1 87.7304C259.704 71.7132 255.814 49.1093 239.917 22.3638C234.119 12.622 233.548 11.7219 232.643 10.871Z" fill="#B9D8FD"/>
<path d="M275.127 123.075C258.42 114.429 244.068 108.961 239.621 109.545C236.806 109.912 236.143 111.244 237.18 114.295C240.557 124.003 245.613 130.239 258.835 140.837C262.241 143.586 266.546 147.439 268.32 149.352C271.851 153.066 281.327 166.295 284.679 172.118L286.722 175.639L287.002 173.15C287.314 170.267 286.482 164.533 284.689 157.429C281.178 143.417 280.927 141.921 281.003 133.629C281.059 130.12 280.985 126.951 280.863 126.603C280.783 126.226 278.221 124.68 275.127 123.075Z" fill="#B9D8FD"/>
<path d="M266.019 154.128C265.155 153.249 263.43 152.106 262.184 151.557C259.633 150.375 256.093 147.348 252.78 143.419C251.566 142.041 248.392 138.572 245.695 135.696C241.575 131.404 240.035 129.388 236.466 123.781C232.459 117.551 232.039 117.04 230.108 116.042C226.259 113.976 221.139 114.475 209.264 118.047C204.685 119.404 199.978 120.666 198.752 120.846C196.493 121.131 193.107 120.599 184.855 118.652C174.447 116.174 168.191 117.595 161.387 123.923C155.389 129.561 152.44 135.163 151.115 143.342C150.416 147.859 150.431 148.406 151.33 148.023C151.882 147.759 154.355 146.641 156.758 145.511C178.704 135.361 208.261 137.273 233.895 150.489C243.29 155.288 249.501 160.279 253.813 166.419C255.999 169.53 260.435 178.121 262.303 182.881C263.266 185.302 263.994 186.339 264.447 186.021C265.147 185.529 268.333 172.388 268.781 167.861C269.322 163.207 269.077 158.919 268.095 156.821C267.81 156.154 266.895 154.938 266.019 154.128Z" fill="#B9D8FD"/>
<path d="M288.573 185.799C287.895 185.098 285.636 182.844 283.564 180.769C281.45 178.722 278.457 175.249 276.913 173.051L274.046 169.056L272.967 176.009C271.724 184.129 270.787 188.133 267.745 197.455C264.704 206.777 262.063 212.906 255.08 226.856C251.751 233.406 248.416 240.209 247.64 241.993C245.041 248.093 241.855 251.26 234.793 254.858C232.173 256.203 226.89 258.922 223.071 260.923C215.486 264.826 211.104 266.727 203.161 269.333C200.348 270.317 198.023 271.207 197.987 271.418C197.837 272.081 202.683 274.253 206.103 275.01C211.989 276.389 214.817 275.951 228.126 271.62C231.038 270.69 234.384 269.765 235.569 269.614C237.088 269.414 239.244 268.457 242.382 266.625C244.915 265.155 248.717 263.042 250.744 261.99C252.813 260.909 255.704 259.249 257.062 258.295C259.767 256.457 260.783 254.753 263.168 247.998C265.696 240.832 266.599 239.579 277.022 228.603C285.408 219.801 288.774 215.578 291.535 210.232C295.661 202.192 295.767 196.48 291.906 190.458C290.736 188.616 289.208 186.53 288.573 185.799Z" fill="#B9D8FD"/>
<path d="M293.684 217.581C289.847 222.444 285.293 227.687 281.542 231.623C276.512 236.89 274.677 239.79 271.911 246.441C267.118 258.171 264.874 260.49 251.979 266.636C249.301 267.898 240.687 273.576 240.632 274.11C240.495 274.702 245.369 278.403 248.796 280.394C253.06 282.789 259.062 284.333 262.137 283.722C265.088 283.198 268.846 280.497 271.587 276.961C272.76 275.393 276.221 269.555 279.24 263.965C285.906 251.664 287.481 249.443 291.844 246.378C294.684 244.383 295.583 244 298.398 243.633L301.701 243.171L301.935 240.529C302.455 234.093 300.211 222.846 297.244 217.31L295.901 214.785L293.684 217.581Z" fill="#B9D8FD"/>
<path d="M194.658 89.4635C190.777 86.7383 181.643 81.2604 181.314 81.4917C181.19 81.5784 179.905 83.1623 178.502 85.0152C175.248 89.2212 172.029 92.164 163.7 98.5096C156.66 103.889 150.979 109.366 148.947 112.775C146.515 116.837 146.035 122.192 147.777 125.986C148.584 127.835 148.655 127.848 154.425 122.06C164.687 111.817 170.833 109.977 186.499 112.416C195.393 113.788 198.096 113.872 200.556 112.825C202.659 111.968 202.942 110.096 202.209 103.364C201.691 98.338 201.448 97.6416 199.561 94.6926C197.965 92.1585 196.956 91.0712 194.658 89.4635Z" fill="#B9D8FD"/>
<path d="M248.27 169.815C246.023 167.491 244.059 166.269 239.412 164.206C237.118 163.215 233.47 160.822 229.783 158.022C223.121 152.914 216.622 149.612 213.197 149.725C211.169 149.725 203.538 151.988 199.226 153.901C188.472 158.544 182.028 165.734 182.197 172.801C182.251 175.241 183.87 180.608 185.035 182.268L185.851 183.429L189.965 180.973C195.414 177.703 199.672 175.889 203.973 175.098C217.709 172.512 230.354 179.489 238.359 194.123C244.549 205.386 245.269 215.163 240.382 221.507C237.859 224.828 236.212 225.985 228.157 230.094C224.696 231.906 221.846 233.536 221.81 233.747C221.689 234.451 227.152 234.702 231.276 234.098C240.932 232.705 248.972 228.049 252.134 222.049C255.852 214.915 262.682 198.472 262.962 195.983C263.065 195.167 262.253 193.136 260.648 190.237C259.333 187.753 257.868 184.88 257.474 183.793C256.407 181.136 250.459 172.057 248.27 169.815Z" fill="#B9D8FD"/>
<path d="M227.924 189.683C225.454 187.391 221.064 184.466 216.887 182.196C211.576 179.36 209.004 178.937 203.741 179.846C201.054 180.308 200.144 180.762 197.168 182.914C193.563 185.57 187.757 191.569 186.509 193.994C185.144 196.688 185.516 201.506 187.468 205.772C188.542 208.177 189.24 208.12 189.614 205.503C189.73 204.617 190.5 202.651 191.351 201.062C192.746 198.41 193.182 197.98 197.38 195.031C201.455 192.168 202.242 191.801 204.724 191.483C210.256 190.695 216.438 194.158 220.954 200.587C223.314 203.947 223.436 204.296 223.32 206.669C223.051 212.062 218.01 217.399 209.351 221.437C202.102 224.856 196.82 224.601 191.643 220.556C183.679 214.38 178.983 200.519 177.413 178.33C177.156 175.165 176.898 172.435 176.782 172.269C176.52 171.895 173.099 175.165 169.806 178.965C167.284 181.851 166.859 182.646 166.438 185.109C166.203 186.7 166.112 189.984 166.237 192.437C166.402 194.86 166.413 200.738 166.305 205.398C166.156 210.087 166.37 216.255 166.727 219.039C167.364 223.796 167.561 224.339 169.6 227.242C171.652 230.076 172.096 230.445 175.256 231.881C184.378 235.942 202.011 240.654 206.023 240.066C208.728 239.715 209.057 239.484 208.687 238.257C208.519 237.756 208.782 236.642 209.278 235.86C210.175 234.424 211.756 233.438 225.231 226.017C234.322 220.932 237.974 215.455 236.879 208.295C236.099 202.896 231.154 192.618 227.924 189.683Z" fill="#B9D8FD"/>
<path d="M191.433 147.357C188.995 147.211 184.335 147.14 181.022 147.237C166.833 147.601 163.281 148.671 152.128 156.072C140.205 163.951 137.834 167.227 135.709 178.817C134.407 185.802 134.092 191.041 134.429 200.097C135.069 219.036 139.013 230.514 149.629 244.491C155.599 252.377 156.482 252.934 173.637 259.592C177.611 261.137 182.509 263.21 184.481 264.179C191.858 267.856 193.23 267.884 202.04 264.235C212.634 259.891 223.358 254.155 231.508 248.43C241.663 241.359 243.65 238.849 239.648 238.315C237.023 237.991 233.866 238.659 225.869 241.365C215.835 244.758 213.364 245.44 208.654 246.085C196.657 247.821 183.215 244.874 170.031 237.656C165.358 235.116 165.171 234.937 162.607 231.287C159.343 226.641 159.104 225.075 160.34 215.72C161.249 208.701 161.702 197.356 161.297 191.879C161.118 189.961 160.388 186.385 159.607 183.96C158.271 179.695 158.249 179.401 159.364 177.75C160.155 176.513 163.321 173.67 169.192 168.988C173.981 165.129 179.505 160.567 181.442 158.774C183.707 156.748 187.107 154.237 190.681 151.974C194.132 149.798 196.202 148.282 196.056 148.075C195.881 147.826 193.831 147.532 191.433 147.357Z" fill="#B9D8FD"/>
<path d="M211.69 199.475C209.557 197.752 206.642 196.578 204.941 196.781C204.243 196.838 202.245 197.931 200.476 199.175C195.989 202.326 194.623 205.02 195.273 209.271C195.501 210.908 196.165 213.167 196.7 214.278C198.136 217.11 199.688 217.569 203.75 216.264C208.118 214.869 211.917 212.138 214.53 208.507L216.564 205.715L215.044 203.375C214.211 202.102 212.665 200.338 211.69 199.475Z" fill="#B9D8FD"/>
<path d="M139.909 127.3C137.129 124.917 132.344 122.393 131.603 122.913C131.274 123.145 131.059 125.464 131.118 128.086C131.242 136.052 128.738 143.076 123.623 149.271C122.268 150.842 118.453 154.513 115.176 157.373C111.869 160.191 107.831 163.894 106.2 165.598C98.6631 173.245 97.529 180.732 102.083 192.029C107.855 206.373 108.323 208.089 109.828 220.908C111.21 232.327 113.496 236.544 120.316 240.303C122.334 241.425 126.267 242.999 128.989 243.812C133.785 245.213 143.387 246.894 144.045 246.431C144.498 246.113 143.324 243.655 141.547 241.124C137.73 235.69 133.189 225.375 131.554 218.409C128.025 203.233 128.909 178.762 133.45 167.024C134.338 164.789 136.483 160.928 138.5 158.025C143.515 150.724 145.555 146.627 146.318 142.374C147.25 136.701 145.167 131.722 139.909 127.3Z" fill="#B9D8FD"/>
<path d="M235.434 277.824C235 277.819 233.316 278.134 231.703 278.462C224.819 279.952 215.1 281.08 210.674 280.905C205.1 280.67 201.177 279.461 196.991 276.826C184.812 269.027 180.061 266.726 163.811 260.919C157.834 258.799 152.005 256.451 150.894 255.744C145.041 252.05 143.936 251.526 142.2 251.506C138.87 251.491 129.752 254.612 129.189 255.999C129.071 256.268 130.264 256.916 131.862 257.528C135.637 258.965 137.698 261.111 139.187 265.331C142.837 275.341 143.046 275.814 144.588 277.395C146.881 279.873 150.833 281.124 156.121 281.126C170.473 281.081 171.913 281.556 180.869 289.142C194.205 300.34 205.266 303.66 217.687 300.077C220.768 299.214 222.049 298.5 226.824 295.146C231.969 291.532 232.487 291.044 233.887 288.574C235.5 285.706 237.21 279.302 236.569 278.389C236.365 278.099 235.827 277.858 235.434 277.824Z" fill="#B9D8FD"/>
<path d="M219.253 317.623C217.997 316.709 216.12 315.612 215.142 315.183C212.948 314.247 207.552 313.391 204.901 313.642C201.969 313.843 201.199 312.835 200.786 308.046C200.555 305.792 200.23 303.666 200.026 303.376C199.064 302.007 198.567 303.224 198.456 307.267C198.384 311.715 197.645 315.827 196.856 316.629C196.597 316.873 192.798 319.603 188.394 322.697C180.849 328.058 180.249 328.604 177.302 332.284C168.967 342.909 165.744 352.235 164.159 370.631C163.735 375.017 163.217 381.018 162.976 383.913C162.723 386.879 161.995 391.355 161.38 393.893C160.754 396.501 160.398 398.795 160.602 399.086C161.36 400.164 166.381 398.124 171.878 394.573C188.726 383.729 204.421 361.617 205.343 347.526C205.737 341.612 205.289 339.573 202.355 334.696C199.962 330.677 199.573 329.774 199.154 326.289C198.609 322.274 199.052 313.104 199.752 312.613C200.493 312.092 200.688 313.07 200.846 318.721C201.053 325.141 201.743 328.312 203.616 331.766C205.902 335.983 211.858 340.349 217.912 342.229C221.214 343.255 233.813 344.564 234.285 343.923C234.473 343.667 233.129 340.089 231.305 335.919C227.299 326.715 223.064 320.335 219.253 317.623Z" fill="#B9D8FD"/>
<path d="M95.1578 196.522C87.2997 190.148 81.0398 188.412 71.5536 189.872C61.3575 191.458 53.0553 195.741 40.684 205.608C36.3602 209.078 32.5233 212.455 32.1219 213.109C31.602 214.031 31.6635 214.731 32.397 215.951C33.2351 217.406 34.6271 218.163 43.2526 221.954C55.9276 227.485 59.2761 228.664 65.3218 229.745C78.3391 232 89.0079 226.798 97.6575 213.908C100.478 209.697 100.525 208.363 97.8823 207.927C96.9684 207.764 91.1503 208.319 84.9325 209.094C71.8162 210.811 63.7947 211.118 65.647 209.817C67.0877 208.805 72.3402 207.532 81.264 205.972C95.063 203.651 99.7499 201.66 97.8028 199.063C97.3949 198.482 96.1744 197.357 95.1578 196.522Z" fill="#B9D8FD"/>
</svg>
