<svg width="356" height="359" viewBox="0 0 356 359" fill="none" xmlns="http://www.w3.org/2000/svg">
<path d="M195.414 324.338C203.169 305.286 203.113 305.437 204.169 299.063C205.263 292.057 204.871 287.947 202.645 282.534C200.862 278.337 196.301 272.755 192.196 269.698C185.826 265.049 183.477 264.176 182.514 266.196C182.16 267.002 182.664 272.405 183.79 279.498C185.017 286.957 185.385 290.426 185.509 294.622C185.624 298.275 185.335 299.474 184.682 298.576C184.054 297.714 182.235 290.96 181.372 286.204C178.678 271.79 177.683 268.448 175.574 267.07C174.595 266.409 174.425 266.479 173.136 267.746C170.919 270.019 167.429 275.252 166.336 278.081C162.228 288.544 165.76 302.513 176.159 316.648C182.025 324.632 188.337 331.632 189.675 331.647C191.791 331.591 193.114 329.913 195.414 324.338Z" fill="#B9D8FD"/>
<path d="M345.645 203.066C346.418 202.228 346.422 199.423 345.638 198.345C345.194 197.735 339.165 193.935 326.168 186.031C310.372 176.484 299.84 174.094 288.181 177.525C281.176 179.601 273.424 185.134 267.337 192.421C264.732 195.527 264.295 197.054 265.702 198.228C266.468 198.824 272.646 199.107 287.091 199.199C294.647 199.249 304.963 200.202 305.46 200.885C306.532 202.357 299.908 203.058 279.41 203.69C274.09 203.826 268.821 204.64 266.814 205.605C265.671 206.163 265.388 206.533 265.264 207.503C265.136 208.695 265.309 209.008 268.217 212.167C271.991 216.289 275.202 218.952 278.12 220.455C292.384 227.821 312.267 224.064 335.618 209.65C344.123 204.393 344.908 203.877 345.645 203.066Z" fill="#B9D8FD"/>
<path d="M247.308 242.168C254.678 227.297 259.28 214.551 258.697 210.635C258.329 208.155 257.143 207.589 254.468 208.548C245.955 211.667 240.531 216.219 231.385 228.041C229.013 231.087 225.68 234.941 224.019 236.534C220.797 239.704 209.272 248.258 204.187 251.3L201.112 253.153L203.312 253.365C205.86 253.599 210.907 252.783 217.146 251.099C229.454 247.8 230.77 247.556 238.087 247.505C241.184 247.504 243.978 247.393 244.284 247.281C244.615 247.205 245.94 244.922 247.308 242.168Z" fill="#B9D8FD"/>
<path d="M219.77 234.572C220.533 233.797 221.514 232.258 221.98 231.15C222.983 228.882 225.598 225.714 229.014 222.733C230.211 221.642 233.223 218.791 235.718 216.37C239.441 212.671 241.196 211.284 246.088 208.053C251.523 204.427 251.966 204.049 252.817 202.331C254.581 198.904 254.061 194.392 250.727 183.961C249.458 179.939 248.272 175.802 248.095 174.722C247.808 172.733 248.226 169.736 249.816 162.424C251.841 153.203 250.491 147.701 244.803 141.786C239.736 136.572 234.748 134.049 227.512 132.997C223.515 132.444 223.033 132.465 223.385 133.253C223.626 133.737 224.651 135.903 225.685 138.008C234.979 157.234 233.749 183.351 222.485 206.166C218.396 214.527 214.088 220.08 208.738 223.974C206.027 225.947 198.515 229.986 194.345 231.703C192.224 232.587 191.321 233.245 191.608 233.64C192.053 234.251 203.696 236.876 207.696 237.206C211.811 237.617 215.591 237.339 217.426 236.443C218.011 236.182 219.069 235.357 219.77 234.572Z" fill="#B9D8FD"/>
<path d="M192.176 254.932C192.784 254.324 194.738 252.298 196.537 250.439C198.31 248.544 201.328 245.853 203.243 244.458L206.724 241.87L200.573 241.017C193.389 240.036 189.843 239.266 181.571 236.715C173.299 234.163 167.851 231.92 155.436 225.955C149.605 223.111 143.552 220.264 141.966 219.605C136.544 217.397 133.701 214.631 130.417 208.449C129.19 206.155 126.71 201.532 124.885 198.189C121.324 191.55 119.58 187.709 117.158 180.735C116.246 178.267 115.425 176.227 115.238 176.198C114.651 176.076 112.81 180.383 112.195 183.413C111.069 188.628 111.499 191.118 115.525 202.804C116.391 205.361 117.259 208.301 117.41 209.344C117.61 210.682 118.488 212.571 120.153 215.316C121.489 217.53 123.412 220.856 124.371 222.63C125.357 224.441 126.866 226.969 127.729 228.154C129.392 230.516 130.911 231.388 136.908 233.397C143.269 235.526 144.388 236.304 154.234 245.348C162.129 252.624 165.906 255.535 170.666 257.895C177.823 261.423 182.864 261.435 188.117 257.941C189.724 256.881 191.541 255.503 192.176 254.932Z" fill="#B9D8FD"/>
<path d="M164.215 259.898C159.865 256.58 155.169 252.635 151.639 249.38C146.914 245.016 144.327 243.437 138.416 241.091C127.994 237.028 125.913 235.081 120.292 223.787C119.137 221.44 113.994 213.919 113.522 213.878C112.997 213.765 109.808 218.12 108.104 221.173C106.057 224.971 104.787 230.292 105.374 232.997C105.882 235.594 108.323 238.872 111.485 241.241C112.886 242.255 118.09 245.226 123.069 247.811C134.025 253.519 136.009 254.877 138.78 258.684C140.584 261.163 140.936 261.951 141.304 264.431L141.762 267.339L144.097 267.508C149.783 267.875 159.671 265.733 164.509 263.036L166.716 261.814L164.215 259.898Z" fill="#B9D8FD"/>
<path d="M275.719 170.661C278.063 167.196 282.755 159.055 282.546 158.768C282.468 158.66 281.051 157.549 279.394 156.337C275.633 153.525 272.987 150.725 267.26 143.464C262.405 137.327 257.485 132.391 254.446 130.646C250.824 128.557 246.092 128.21 242.772 129.802C241.153 130.541 241.143 130.603 246.339 135.614C255.535 144.525 257.252 149.924 255.343 163.787C254.27 171.657 254.237 174.043 255.199 176.201C255.988 178.044 257.644 178.268 263.572 177.524C267.998 176.995 268.609 176.77 271.181 175.063C273.392 173.618 274.336 172.711 275.719 170.661Z" fill="#B9D8FD"/>
<path d="M205.656 219.13C207.671 217.113 208.719 215.362 210.468 211.231C211.307 209.192 213.362 205.938 215.775 202.643C220.179 196.69 222.992 190.906 222.839 187.885C222.807 186.095 220.693 179.392 218.939 175.613C214.677 166.187 208.233 160.602 202.001 160.852C199.849 160.935 195.139 162.44 193.693 163.493L192.681 164.229L194.911 167.826C197.88 172.588 199.546 176.321 200.31 180.106C202.804 192.193 196.844 203.454 184.057 210.729C174.216 216.353 165.601 217.129 159.928 212.906C156.959 210.726 155.913 209.289 152.163 202.238C150.511 199.209 149.029 196.716 148.842 196.687C148.219 196.591 148.082 201.417 148.679 205.048C150.057 213.551 154.289 220.581 159.632 223.287C165.983 226.467 180.596 232.26 182.796 232.472C183.517 232.551 185.297 231.805 187.83 230.347C190.001 229.151 192.513 227.817 193.465 227.453C195.793 226.473 203.712 221.094 205.656 219.13Z" fill="#B9D8FD"/>
<path d="M187.813 201.455C189.797 199.242 192.31 195.325 194.248 191.606C196.668 186.878 197.002 184.601 196.118 179.969C195.669 177.604 195.254 176.807 193.31 174.211C190.911 171.067 185.528 166.028 183.37 164.961C180.972 163.794 176.727 164.192 172.993 165.975C170.888 166.958 170.949 167.573 173.264 167.866C174.047 167.955 175.794 168.607 177.209 169.336C179.57 170.529 179.956 170.908 182.623 174.571C185.211 178.127 185.547 178.817 185.866 181.002C186.647 185.874 183.687 191.38 178.084 195.458C175.157 197.589 174.851 197.702 172.756 197.634C167.994 197.473 163.207 193.1 159.511 185.515C156.382 179.165 156.525 174.5 160.014 169.872C165.34 162.754 177.496 158.411 197.049 156.708C199.837 156.437 202.242 156.17 202.387 156.065C202.712 155.828 199.775 152.856 196.371 150.003C193.786 147.819 193.078 147.454 190.898 147.118C189.492 146.933 186.592 146.9 184.43 147.045C182.295 147.226 177.109 147.319 172.996 147.29C168.857 147.226 163.419 147.503 160.968 147.858C156.781 148.488 156.305 148.67 153.774 150.511C151.306 152.363 150.987 152.76 149.77 155.569C146.327 163.68 142.442 179.31 143.023 182.844C143.375 185.226 143.584 185.513 144.66 185.169C145.1 185.014 146.087 185.23 146.784 185.656C148.065 186.427 148.96 187.809 155.715 199.597C160.342 207.549 165.23 210.694 171.53 209.625C176.281 208.859 185.273 204.347 187.813 201.455Z" fill="#B9D8FD"/>
<path d="M224.592 168.641C224.683 166.487 224.674 162.372 224.537 159.45C223.996 146.931 222.997 143.811 216.296 134.072C209.16 123.661 206.233 121.615 195.975 119.905C189.792 118.856 185.165 118.652 177.181 119.079C160.481 119.915 150.415 123.559 138.248 133.13C131.382 138.512 130.905 139.299 125.295 154.536C123.994 158.066 122.241 162.419 121.416 164.174C118.286 170.738 118.283 171.949 121.638 179.673C125.634 188.962 130.861 198.346 136.037 205.458C142.433 214.32 144.678 216.038 145.088 212.498C145.333 210.176 144.694 207.399 142.184 200.379C139.036 191.571 138.395 189.4 137.753 185.251C136.036 174.687 138.429 162.78 144.593 151.04C146.762 146.879 146.917 146.711 150.098 144.396C154.147 141.449 155.525 141.215 163.797 142.173C170.004 142.875 180.02 143.113 184.846 142.677C186.536 142.491 189.679 141.797 191.807 141.072C195.549 139.832 195.808 139.808 197.282 140.769C198.385 141.449 200.943 144.204 205.164 149.319C208.642 153.49 212.752 158.301 214.365 159.985C216.187 161.956 218.455 164.921 220.507 168.043C222.48 171.058 223.849 172.863 224.03 172.732C224.247 172.574 224.475 170.76 224.592 168.641Z" fill="#B9D8FD"/>
<path d="M178.923 187.265C180.41 185.358 181.401 182.769 181.195 181.27C181.135 180.655 180.139 178.907 179.015 177.363C176.165 173.447 173.767 172.28 170.026 172.915C168.586 173.139 166.603 173.758 165.631 174.246C163.155 175.554 162.774 176.93 163.988 180.497C165.287 184.333 167.754 187.647 170.998 189.901L173.493 191.657L175.533 190.282C176.644 189.528 178.176 188.138 178.923 187.265Z" fill="#B9D8FD"/>
<path d="M241.491 122.877C243.551 120.388 245.704 116.129 245.233 115.482C245.024 115.195 242.975 115.038 240.662 115.128C233.636 115.351 227.4 113.242 221.856 108.815C220.448 107.641 217.151 104.327 214.577 101.474C212.04 98.5959 208.71 95.085 207.182 93.6695C200.318 87.1263 193.695 86.2323 183.799 90.4134C171.233 95.7133 169.726 96.1505 158.44 97.6619C148.387 99.0447 144.701 101.123 141.491 107.196C140.531 108.993 139.204 112.487 138.528 114.902C137.366 119.155 136.032 127.654 136.45 128.229C136.738 128.624 138.889 127.553 141.094 125.948C145.829 122.501 154.859 118.346 160.98 116.803C174.315 113.471 195.918 113.902 206.345 117.742C208.33 118.495 211.769 120.333 214.362 122.072C220.881 126.394 224.527 128.136 228.291 128.748C233.31 129.491 237.671 127.58 241.491 122.877Z" fill="#B9D8FD"/>
<path d="M110.165 209.343C110.163 208.96 109.859 207.478 109.544 206.058C108.124 200.004 106.979 191.441 107.064 187.532C107.185 182.609 108.192 179.129 110.451 175.396C117.145 164.535 119.101 160.309 123.973 145.882C125.752 140.577 127.733 135.398 128.339 134.407C131.508 129.188 131.954 128.205 131.945 126.673C131.906 123.733 129.012 115.73 127.78 115.253C127.54 115.152 126.987 116.215 126.471 117.634C125.262 120.987 123.401 122.836 119.701 124.21C110.925 127.576 110.511 127.767 109.14 129.15C106.989 131.21 105.947 134.716 106.027 139.383C106.288 152.051 105.891 153.329 99.3369 161.342C89.6628 173.274 86.9049 183.084 90.2577 193.996C91.0673 196.703 91.717 197.824 94.7497 201.991C98.0178 206.48 98.4561 206.931 100.657 208.131C103.212 209.514 108.889 210.931 109.684 210.353C109.937 210.168 110.141 209.69 110.165 209.343Z" fill="#B9D8FD"/>
<path d="M74.802 195.629C75.5888 194.507 76.5279 192.834 76.891 191.966C77.6833 190.015 78.3551 185.24 78.0923 182.904C77.8695 180.319 78.7471 179.625 82.9661 179.192C84.951 178.956 86.8214 178.639 87.0744 178.454C88.2673 177.586 87.186 177.164 83.6177 177.124C79.6917 177.124 76.0526 176.531 75.3329 175.846C75.1137 175.621 72.6461 172.307 69.8487 168.463C65.002 161.881 64.5114 161.358 61.2186 158.81C51.7161 151.605 43.4384 148.893 27.1832 147.757C23.3072 147.446 18.0047 147.074 15.4468 146.903C12.8267 146.722 8.86619 146.143 6.61754 145.636C4.30661 145.121 2.27712 144.839 2.02409 145.024C1.08426 145.708 2.96186 150.111 6.17988 154.912C16.0069 169.628 35.7587 183.166 48.2041 183.778C53.4282 184.042 55.2201 183.617 59.4777 180.957C62.9863 178.788 63.7777 178.432 66.8455 178.012C70.3793 177.473 78.4765 177.734 78.921 178.345C79.3916 178.991 78.5318 179.177 73.5491 179.397C67.8874 179.672 65.1011 180.326 62.0824 182.029C58.397 184.107 54.6374 189.426 53.0719 194.796C52.218 197.726 51.2572 208.865 51.8301 209.273C52.0593 209.436 55.1948 208.197 58.8463 206.529C66.9047 202.861 72.4676 199.032 74.802 195.629Z" fill="#B9D8FD"/>
<path d="M179.728 84.3648C185.23 77.3376 186.665 71.7875 185.231 63.4353C183.673 54.4582 179.767 47.1913 170.871 36.4126C167.742 32.6457 164.703 29.3073 164.121 28.9623C163.298 28.5166 162.682 28.5809 161.617 29.2457C160.346 30.0062 159.7 31.2458 156.488 38.9133C151.805 50.1801 150.816 53.1525 149.956 58.5042C148.168 70.0263 152.922 79.369 164.427 86.8195C168.186 89.2488 169.364 89.2709 169.708 86.9325C169.838 86.1235 169.258 80.996 168.478 75.5189C166.761 63.9662 166.366 56.8903 167.542 58.5067C168.457 59.7638 169.662 64.3818 171.176 72.2363C173.437 84.3829 175.266 88.4914 177.527 86.7357C178.033 86.3674 179.007 85.274 179.728 84.3648Z" fill="#B9D8FD"/>
</svg>
