<svg width="95" height="87" viewBox="0 0 95 87" fill="none" xmlns="http://www.w3.org/2000/svg">
<path d="M66.5949 0.961781C65.8975 1.51994 63.8054 2.80798 62.926 3.22302C61.3493 3.98153 60.1365 4.29639 56.8769 4.82592C53.6173 5.35545 53.5264 5.35545 51.9951 5.18371C47.8108 4.69711 43.4597 5.88498 38.7598 8.77592C36.1673 10.3788 32.9533 12.9692 32.6046 13.7277C32.1952 14.658 32.4681 15.6312 33.2716 16.175C34.1055 16.7189 34.3026 16.6759 35.0909 15.7886C36.9405 13.7277 39.5482 11.4522 41.4736 10.2071C42.459 9.59168 42.8077 9.47719 42.6561 9.84929C42.6107 9.9781 42.5652 10.1212 42.5652 10.1928C42.5652 10.2643 42.0042 10.7223 41.322 11.2375C39.7908 12.3681 37.5924 14.4147 36.1219 16.0748C34.909 17.4488 33.0291 19.896 32.65 20.5973C31.9527 21.8997 32.8775 23.5026 34.3329 23.5026C34.7119 23.5026 34.8332 23.3595 35.4245 22.3147C36.3189 20.7404 38.1231 18.15 39.3359 16.6759C40.473 15.302 42.6561 13.1982 42.9442 13.1982C43.0655 13.1982 43.1868 13.3986 43.2474 13.6419C43.3384 14.0426 43.2777 14.1714 42.6107 14.8297C40.1849 17.1911 37.4863 21.1412 35.5003 25.2057C34.6361 26.9803 34.5148 27.6386 34.909 28.3685C35.5003 29.4419 37.0618 29.7567 38.0169 28.9839C38.5324 28.5832 39.4269 26.9087 39.9878 25.2772C40.4123 24.0607 41.2613 22.1 41.7768 21.1412C42.9442 18.9515 44.809 16.4899 45.3093 16.4899C45.6883 16.4899 45.6731 16.6616 45.2486 17.1625C44.4603 18.0498 43.0503 20.4542 42.3984 21.9999C41.2917 24.6332 40.5791 26.8515 40.0485 29.356C39.4875 31.9894 39.4572 32.6334 39.8059 33.2345C40.1243 33.7783 41.0643 34.3794 41.6252 34.3794C42.1255 34.3794 43.1261 33.8642 43.399 33.4635C43.5355 33.2774 43.8083 32.2899 43.9903 31.2738C44.8999 26.6225 46.8708 22.6868 49.5998 20.1393C50.5852 19.2091 51.0249 18.9085 51.8587 18.5937C53.2383 18.0642 54.4815 18.0642 55.5276 18.5794C56.5737 19.0946 58.2717 20.6975 58.5749 21.456C58.8023 22.0142 58.8023 22.1143 58.5597 22.8156C58.2869 23.6314 57.7562 24.5616 57.1346 25.3488C56.9224 25.6207 55.4063 26.7799 53.7841 27.9105C52.1619 29.0555 50.5397 30.1861 50.191 30.4294C49.4481 30.9589 49.2359 31.3167 49.2359 32.1325C49.2359 33.3203 50.2971 34.2077 51.51 34.0502C52.2226 33.9644 59.8029 30.458 60.3639 29.9714C61.5616 28.898 62.9412 26.8229 64.0934 24.3613C65.3518 21.6707 65.9127 20.6546 66.7314 19.6384C67.9746 18.0785 70.6125 15.3879 73.3869 12.8261L75.9643 10.4504L75.8733 9.57737C75.6762 7.54512 74.3269 5.08352 72.5834 3.55218C71.4312 2.55037 70.7035 2.07809 69.1571 1.33388C67.5349 0.561058 67.171 0.503811 66.5949 0.961781Z" fill="#B9D8FD"/>
<path d="M64.5331 29.8856C63.2747 31.3597 63.1383 31.5314 63.1989 31.5744C63.2292 31.603 65.7914 32.8338 68.869 34.3079C81.0734 40.147 89.9273 44.4119 89.988 44.4691C90.0638 44.5264 88.7599 45.4996 81.1492 51.0525C77.92 53.4139 74.7362 55.7467 74.0692 56.2476C73.3869 56.7342 72.735 57.1922 72.5986 57.2637C72.4167 57.3496 71.2341 56.4336 67.4288 53.2422C64.715 50.9523 62.259 48.8914 61.9557 48.6481C61.6525 48.3905 59.151 46.2867 56.3766 43.9682C53.6022 41.6497 51.2523 39.732 51.1613 39.7177C51.0552 39.7034 50.7368 39.961 50.4487 40.2758L49.9333 40.8483L50.4639 41.3063C50.752 41.5496 51.8132 42.4226 52.7987 43.2527C53.7993 44.0827 55.3305 45.3708 56.2098 46.115C57.0891 46.8592 60.6974 49.8789 64.2147 52.8271C67.732 55.7753 70.567 58.2226 70.5367 58.2798C70.5064 58.3371 69.2935 58.8237 67.8533 59.3532C66.413 59.8971 61.0764 61.9007 55.9824 63.8184L46.7344 67.3105L46.4463 66.9813C44.7786 65.0349 41.2765 60.9275 40.7459 60.2835C40.3669 59.8255 39.0782 58.3085 37.8805 56.9059C36.6676 55.4891 33.1958 51.4103 30.1485 47.8324C27.1012 44.2545 23.1594 39.6175 21.3856 37.528C19.6118 35.4528 18.1564 33.7068 18.1564 33.6496C18.1564 33.5637 21.143 33.4778 30.8459 33.2918L35.5761 33.1916L34.9696 32.5333C34.6361 32.1755 34.06 31.4599 33.681 30.9304L33.0139 29.9715L28.4202 30.043C25.9035 30.086 21.795 30.1575 19.2934 30.2148L14.7452 30.3006L13.7598 30.959C13.214 31.3168 11.7131 32.29 10.4244 33.12C9.13573 33.9501 7.22548 35.1809 6.17939 35.8535C5.1333 36.5262 3.40498 37.6425 2.34372 38.3295C1.13086 39.1166 0.312185 39.7463 0.160577 40.0182C-0.172959 40.6336 -0.00619068 41.292 0.842811 42.4512C1.25215 43.0094 2.32856 44.4978 3.23821 45.7572C4.14785 47.0166 5.57296 49.0059 6.43712 50.1938C7.28612 51.3673 8.878 53.5999 9.98474 55.1313C11.0915 56.6626 12.4711 58.5947 13.0775 59.4248C13.6688 60.2548 14.9726 62.0581 15.9581 63.432C16.9587 64.8059 18.4596 66.8954 19.3237 68.0833C20.1728 69.2568 21.5827 71.2319 22.462 72.4483C23.3413 73.6648 24.5845 75.4108 25.2364 76.3125C25.8883 77.2141 27.3135 79.1748 28.3747 80.6775C32.6652 86.6311 32.3923 86.3163 33.2716 86.4308C34.1206 86.531 34.5451 86.259 35.7428 84.8565C36.2886 84.2125 37.8502 82.3949 39.2298 80.8063C40.6094 79.232 43.2019 76.2266 44.9909 74.1371C46.9314 71.8616 48.4324 70.2587 48.7053 70.1299C49.1146 69.9295 53.3899 68.3123 68.49 62.6449L73.5689 60.7271L75.9946 58.9668C77.3136 57.9936 80.3154 55.8039 82.6653 54.1009C85.0001 52.3835 87.9867 50.1938 89.3209 49.2349C93.7781 45.9719 94.7029 45.2563 94.8849 44.9557C95.1274 44.5264 94.9607 43.4244 94.6271 43.1095C94.4604 42.9664 92.6714 42.0505 90.6247 41.063C80.8915 36.3974 77.2075 34.6227 71.507 31.8892L65.3366 28.941L64.5331 29.8856ZM17.2467 35.3956C17.9593 36.2257 21.1279 39.961 24.2965 43.682C39.3208 61.3282 45.188 68.2407 45.2486 68.4125C45.2941 68.4983 44.9302 69.0422 44.4451 69.6003C43.5203 70.6451 42.2013 72.1764 36.8192 78.4449C35.1061 80.4199 33.681 82.0371 33.6355 82.0371C33.59 82.0371 32.7713 80.9637 31.8314 79.6471C30.8914 78.3161 29.4208 76.2695 28.5718 75.096C27.086 73.0351 24.9635 70.1012 21.6585 65.5072C20.8095 64.3193 19.4602 62.4588 18.6718 61.3568C17.8835 60.2548 16.5342 58.38 15.6852 57.2065C14.821 56.0186 13.2443 53.8289 12.1679 52.3405C11.0915 50.8378 9.93925 49.2349 9.59056 48.7626C9.24186 48.2903 7.87739 46.4012 6.55841 44.555L4.16301 41.1918L4.633 40.8483C4.89073 40.6623 6.20971 39.8036 7.57418 38.9305C9.95441 37.4135 12.0163 36.0682 14.3813 34.5369C15.0029 34.1218 15.6094 33.8213 15.7307 33.8356C15.8519 33.8642 16.5342 34.5655 17.2467 35.3956Z" fill="#B9D8FD"/>
<path d="M45.385 33.5209C43.0351 34.3796 42.4135 37.0272 44.1419 38.7589L44.7938 39.403L44.6118 40.2187C44.1722 42.1079 43.6112 44.4979 42.9593 47.2457C42.5803 48.8486 42.2619 50.2655 42.2619 50.3943C42.2771 50.5231 42.9896 48.7485 43.869 46.4729C46.0824 40.6624 46.0066 40.8628 46.3098 40.276C46.5524 39.818 46.6737 39.7321 47.265 39.6463C48.7052 39.4173 49.9939 37.9575 49.9939 36.5406C49.9939 35.7106 49.433 34.5656 48.7962 34.0504C48.3111 33.664 47.0376 33.2347 46.4463 33.2347C46.2644 33.249 45.7944 33.3778 45.385 33.5209Z" fill="#B9D8FD"/>
</svg>
