<svg width="240" height="241" viewBox="0 0 240 241" fill="none" xmlns="http://www.w3.org/2000/svg">
<path d="M200.933 151.253C202.814 144.452 203.174 141.929 202.421 140.366C201.936 139.428 201.618 139.6 201.288 141.073C200.691 143.427 198.892 146.757 197.539 147.943C193.752 151.175 189.264 149.749 184.806 143.861C181.602 139.612 177.761 137.214 173.08 136.564C171.366 136.304 168.736 136.389 168.79 136.704C168.786 136.821 169.716 137.24 170.807 137.654C172.297 138.231 173.25 138.786 174.64 140.007C175.647 140.877 177.613 142.346 178.976 143.27C181.413 144.913 181.474 144.995 182.616 147.35C183.26 148.678 184.317 150.258 184.954 150.867C185.618 151.495 186.411 152.611 186.774 153.383C187.66 155.318 188.27 155.63 190.628 155.314C192.033 155.117 193.025 155.224 193.812 155.621C195.129 156.275 196.208 156.204 197.783 155.374C199.651 154.353 200.275 153.526 200.933 151.253Z" fill="#B9D8FD"/>
<path d="M199.984 142.134C200.412 140.969 200.757 139.586 200.797 139.139C200.825 138.484 201.098 138.042 201.891 137.255C203.809 135.437 204.35 134.391 204.822 131.71C205.283 129.101 204.978 120.357 204.384 119.184C204.021 118.411 203.433 117.956 200.937 116.509C194.623 112.8 193.92 112.62 190.978 113.872C189.68 114.422 188.964 114.988 188.07 116.14C186.843 117.653 186.824 117.679 187.818 117.113C188.347 116.812 189.466 116.572 190.262 116.619C191.078 116.64 192.453 116.541 193.346 116.34C195.656 115.87 196.859 116.125 198.099 117.28C200.3 119.312 201.475 123.355 201.487 128.877C201.502 134.282 200.963 137.114 199.498 139.41C198.821 140.479 197.845 141.693 197.331 142.084C195.701 143.271 193.524 143.835 191.73 143.519C190.82 143.352 190.084 143.386 190.141 143.585C190.252 144.1 193.327 147.861 194.013 148.345C194.382 148.606 194.967 148.504 195.841 148.051C197.462 147.213 198.95 145.052 199.984 142.134Z" fill="#B9D8FD"/>
<path d="M199.623 137.555C200.196 136.017 199.861 135.82 198.734 136.966C196.914 138.814 194.851 138.545 193.276 136.242C192.785 135.538 192.258 135.165 191.14 134.732C189.864 134.187 189.593 133.956 188.969 132.88C188.569 132.161 188.083 130.667 187.846 129.548L187.41 127.534L186.868 128.301C185.616 130.073 185.653 133.432 186.942 136.644C187.613 138.268 187.786 138.47 189.296 139.299C190.169 139.798 191.258 140.607 191.62 141.101C193.741 143.75 198.029 141.823 199.623 137.555Z" fill="#B9D8FD"/>
<path d="M190.162 145.346C187.97 142.685 187.559 142.316 185.371 141.047C184.039 140.303 182.619 139.459 182.152 139.168C181.659 138.859 181.942 139.298 182.927 140.311C183.824 141.223 185.299 142.94 186.231 144.194C187.183 145.421 188.435 146.782 189.068 147.23C190.254 148.068 192.18 148.756 192.405 148.438C192.479 148.332 191.453 146.932 190.162 145.346Z" fill="#B9D8FD"/>
<path d="M200.482 132.648C200.796 128.904 199.287 123.038 197.545 121.251C197.127 120.837 196.298 120.33 195.685 120.135C194.316 119.723 191.341 119.96 190.111 120.637C189.274 121.038 189.151 121.268 188.71 122.899C188.439 123.898 188.313 125.475 188.447 126.403C188.571 127.403 188.738 127.838 188.83 127.427C189.962 123.309 191.257 121.646 193.645 121.231C194.907 121.013 195.317 121.104 196.424 121.887C197.426 122.595 197.849 123.172 198.399 124.631C199.157 126.635 199.425 129.165 199.051 130.645C198.691 131.938 196.862 134.413 195.535 135.34C194.912 135.772 194.373 136.145 194.373 136.145C194.178 136.364 195.116 137.106 195.748 137.275C196.353 137.426 196.961 137.181 198.329 136.085C199.319 135.357 200.173 134.652 200.248 134.546C200.304 134.466 200.41 133.589 200.482 132.648Z" fill="#B9D8FD"/>
<path d="M191.153 141.762C190.911 141.433 189.909 140.725 188.938 140.197C186.785 138.992 186.135 137.898 185.409 134.449C184.768 131.497 185.105 129.118 186.432 127.24C187.143 126.235 187.482 125.364 187.591 124.37C187.66 123.546 187.654 122.827 187.574 122.771C187.495 122.715 186.832 123.318 186.136 124.135C184.699 125.776 181.576 127.734 179.324 128.403C178.13 128.749 177.406 129.269 175.632 131.108C174.403 132.342 172.856 133.748 172.216 134.207C171.575 134.666 171.05 135.129 171.084 135.192C171.099 135.282 172.874 135.625 175.043 135.968C179.194 136.641 180.338 137.092 185.914 140.28C190.096 142.642 192.293 143.282 191.153 141.762Z" fill="#B9D8FD"/>
<path d="M198.27 129.736C198.605 126.8 197.427 124.103 195.611 123.652C194.276 123.304 193.588 124.444 193.216 127.711C192.87 130.719 192.642 131.153 191.003 132.017C189.664 132.737 189.711 133.286 191.215 133.675C191.697 133.777 192.457 134.156 192.932 134.491C193.433 134.845 194.091 135.033 194.444 134.925C195.465 134.655 198.124 131.061 198.27 129.736Z" fill="#B9D8FD"/>
<path d="M181.825 147.743C180.909 145.906 180.709 145.685 178.057 143.731C170.618 138.314 170.539 138.258 168.7 137.95C167.05 137.656 166.851 137.713 164.331 139.264C160.716 141.469 158.824 141.797 156.655 140.502L155.085 139.591L155.513 140.607C156.517 143.102 160.558 146.672 163.714 147.912C165.904 148.786 168.156 149.068 173.695 149.176C176.393 149.218 179.508 149.398 180.651 149.571C181.768 149.725 182.715 149.84 182.753 149.787C182.771 149.76 182.358 148.834 181.825 147.743Z" fill="#B9D8FD"/>
<path d="M199.487 121.077C198.692 119.126 198.114 118.321 196.927 117.483C196.057 116.868 195.61 116.829 193.977 117.182C192.903 117.415 191.348 117.545 190.506 117.505C188.732 117.441 188.222 117.716 186.321 119.902C185.542 120.78 183.749 122.646 182.3 124.08C180.843 125.47 179.574 126.874 179.44 127.176C178.943 128.213 183.012 125.814 185.106 123.803C189.053 120.008 189.383 119.766 191.297 119.294C193.302 118.808 196.441 119.122 197.522 119.886C197.917 120.166 198.54 120.963 198.967 121.701C199.916 123.324 200.268 122.938 199.487 121.077Z" fill="#B9D8FD"/>
<path d="M192.436 127.081C192.806 124.208 193.321 123.144 194.634 122.684C195.967 122.198 194.921 121.776 193.412 122.177C192.499 122.405 191.941 122.803 191.361 123.623C190.501 124.84 188.982 129.954 189.14 131.017C189.266 131.622 189.363 131.652 190.231 131.432C191.578 131.036 192.071 130.115 192.436 127.081Z" fill="#B9D8FD"/>
<path d="M198.424 112.234C197.814 109.74 196.051 108.375 193.308 108.34C192.376 108.315 191.45 108.058 190.844 107.629C189.209 106.474 186.689 106.795 185.616 108.257C185.373 108.601 185.016 109.777 184.858 110.895C184.586 112.567 184.28 113.224 183.027 114.996C181.756 116.794 180.992 117.484 178.098 119.564C174.151 122.406 173.119 123.699 172.074 126.967C171.394 129.104 171.271 129.335 168.299 132.867C163.479 138.623 163.442 138.676 166.588 136.854C173.019 133.07 176.397 129.745 184.458 119.18C188.315 114.172 189.63 113.039 192.454 112.456C194.241 112.054 195.952 112.43 197.587 113.586C198.668 114.35 198.828 114.067 198.424 112.234Z" fill="#B9D8FD"/>
<path d="M200.415 93.5302C200.497 92.2395 200.108 90.7751 199.555 90.3837C199.317 90.2159 199.029 90.5676 198.48 91.5679C197.42 93.5156 196.678 94.062 194.44 94.5429C191.932 95.0705 191.315 94.9918 187.21 93.3594C174.583 88.4004 169.371 87.2152 161.928 87.5076L160.088 87.5947L161.141 88.0618C161.698 88.3366 163.963 89.1044 166.194 89.8085C170.034 90.9761 170.316 91.136 172.393 92.8416C174.959 94.9729 175.997 95.3499 179.729 95.608C186.066 96.0411 187.131 96.4367 190.93 99.9555C192.276 101.184 192.453 101.27 193.64 101.157C194.782 101.052 194.984 100.877 196.188 99.2296C196.88 98.251 197.861 97.199 198.3 96.914C199.514 96.1464 200.34 94.866 200.415 93.5302Z" fill="#B9D8FD"/>
<path d="M183.697 111.978L183.938 111.078L182.015 111.226C180.937 111.296 177.905 111.335 175.252 111.284C169.345 111.194 166.069 111.576 163.653 112.645C161.882 113.416 158.738 115.795 158.815 116.246C158.891 116.697 165.781 115.061 167.221 114.255C168.788 113.379 169.664 113.483 168.954 114.488C168.075 115.731 163.429 119.507 161.168 120.805C159.9 121.535 158.296 122.741 157.63 123.46C157.008 124.172 155.869 125.112 155.157 125.56C153.878 126.362 153.86 126.388 153.647 127.864C152.872 132.989 154.146 137.618 156.73 139.445C159.333 141.245 161.078 140.733 163.415 137.427C164.294 136.184 166.236 133.828 167.737 132.152L170.459 129.197L171.317 126.472C172.403 123.034 173.387 121.866 177.986 118.492C181.449 115.942 183.155 113.975 183.697 111.978Z" fill="#B9D8FD"/>
<path d="M199.785 87.3731C200.711 85.7271 201.487 84.0145 201.526 83.5666C201.717 82.2338 197.154 74.0896 195.095 72.0792C193.535 70.5396 193.252 70.3797 191.304 69.8355C189.427 69.3022 189.092 69.105 188.19 68.0313C187.617 67.388 186.189 66.2199 184.894 65.4233C182.947 64.2058 182.326 63.9653 181.018 63.9135C180.015 63.8786 179.283 64.0752 179.04 64.419C178.572 65.0803 177.926 70.4144 178.346 70.4342C178.489 70.4559 179.04 70.0122 179.557 69.5049C180.777 68.2257 184.258 67.5525 186.06 68.1917C187.817 68.8386 190.285 70.6621 191.523 72.2113C195.569 77.4513 197.75 82.3647 197.68 86.0438C197.587 88.636 196.652 89.9585 194.318 90.6882C193.394 90.9875 192.149 91.5748 191.59 91.9734C191.04 92.417 190.241 92.7644 189.82 92.7446C188.617 92.7673 188.998 93.2351 190.582 93.68C191.462 93.9452 192.807 93.944 194.106 93.6724C196.1 93.2571 196.291 93.1543 197.2 91.8131C197.716 91.0274 198.885 89.0376 199.785 87.3731Z" fill="#B9D8FD"/>
<path d="M188.869 99.2918C188.404 98.6064 186.721 97.5754 185.503 97.2296C184.844 97.042 182.566 96.7407 180.401 96.5591C175.214 96.0659 174.503 95.841 171.858 93.6538C169.827 91.9404 169.526 91.8069 165.527 90.5274C163.244 89.7861 160.501 88.7994 159.466 88.3058C158.006 87.6307 157.311 87.496 156.38 87.7502C154.825 88.1589 154.024 88.9013 153.533 90.3789C152.748 92.7198 153.435 95.6644 155.603 99.141L156.76 101.029L157.977 101.097C158.639 101.168 159.929 101.524 160.832 101.925C161.754 102.299 163.811 102.801 165.42 102.986C167.029 103.171 169.48 103.674 170.868 104.06C173.43 104.8 176.12 106.028 175.896 106.345C175.84 106.425 174.942 106.464 173.957 106.403C171.657 106.245 165.71 107.554 166.891 107.953C171.164 109.347 175.302 108.305 181.326 104.313C182.927 103.223 185.345 101.759 186.684 101.04C188.597 100.012 189.066 99.629 188.869 99.2918Z" fill="#B9D8FD"/>
<path d="M196.837 86.6774C196.946 85.6837 196.683 83.5941 196.335 82.9117C196.097 82.4656 196.037 82.6616 196.015 83.7563C195.984 85.7576 194.63 87.6169 192.399 88.8161C190.34 89.939 188.706 90.0135 185.501 89.1765C182.538 88.3906 180.222 88.1422 178.679 88.4794C177.155 88.7901 177.667 89.0727 181.036 89.7882C182.577 90.1244 184.981 90.7521 186.403 91.2019C189.408 92.0965 190.125 92.0882 191.482 91.0638C192.014 90.6467 193.151 90.1015 193.939 89.8256C195.542 89.2924 196.698 88.0475 196.837 86.6774Z" fill="#B9D8FD"/>
<path d="M195.048 84.6202C195.621 81.8518 192.925 74.5908 190.789 73.0812C188.891 71.7393 185.45 71.9646 185.263 73.4591C185.171 74.148 185.243 74.1588 187.198 74.4697C191.172 75.0573 193.718 77.8883 194.255 82.2744C194.437 83.7514 194.325 84.1885 193.54 85.2994C192.418 86.8864 191.169 87.312 189.13 86.7834C187.724 86.4239 186.221 85.3615 185.107 83.8604C184.926 83.6133 184.901 83.873 185.045 84.4513C185.209 85.0032 185.998 86.2356 186.806 87.1633C188.273 88.8352 188.352 88.8911 189.367 88.8545C191.628 88.7872 194.698 86.5144 195.048 84.6202Z" fill="#B9D8FD"/>
<path d="M191.972 84.9444C191.319 85.1969 190.902 85.0604 189.847 84.3149C189.135 83.8117 188.238 82.8997 187.86 82.3153C186.908 80.8094 185.42 79.8372 184.392 80.062C183.029 80.3679 183.392 81.1404 186.012 83.5873C187.942 85.3879 188.575 85.8352 189.466 86.0288C190.669 86.2844 191.889 85.9568 192.431 85.1897C192.787 84.6872 192.76 84.6685 191.972 84.9444Z" fill="#B9D8FD"/>
<path d="M193.036 81.9285C193.262 79.7078 191.46 76.8871 189.209 75.9311C188.438 75.6239 187.362 75.2998 186.772 75.2396C185.772 75.0881 185.69 75.1488 184.437 76.921C183.016 78.9312 182.965 79.4506 184.238 79.1603C185.511 78.87 186.949 79.6883 188.308 81.4022C188.964 82.2631 189.986 83.2232 190.603 83.5804C191.609 84.172 191.77 84.1672 192.328 83.4903C192.68 83.1044 192.997 82.3764 193.036 81.9285Z" fill="#B9D8FD"/>
<path d="M153.066 135.903C152.697 133.738 152.671 133.72 151.943 134.078C150.424 134.829 148.101 136.717 147.353 137.775C146.867 138.463 146.38 139.824 146.095 141.289C145.859 142.629 145.407 144.332 145.124 145.124L144.599 146.538L145.824 145.42C146.487 144.818 147.838 143.354 148.822 142.185C149.799 140.971 151.136 139.695 151.894 139.239C152.606 138.791 153.273 138.35 153.329 138.271C153.404 138.165 153.273 137.12 153.066 135.903Z" fill="#B9D8FD"/>
<path d="M185.596 87.1409C184.739 86.0593 184.23 85.6601 183.474 85.4431C181.135 84.7811 179.035 81.7102 178.27 77.7581C177.785 75.3126 177.818 75.098 178.64 73.9342C179.519 72.691 180.051 71.0438 179.655 70.7643C179.154 70.4102 177.502 72.971 174.822 78.2166C173.539 80.7601 172.816 81.5584 169.463 84.3446C168.185 85.4249 167.181 86.3416 167.17 86.4131C167.204 86.4768 168.336 86.7216 169.693 86.9272C171.05 87.1329 172.878 87.5123 173.758 87.7775C174.905 88.1124 176.134 88.1083 177.91 87.7771C180.362 87.3288 183.012 87.496 185.547 88.2169L186.694 88.5518L185.596 87.1409Z" fill="#B9D8FD"/>
<path d="M162.84 116.592C160.91 116.973 158.327 117.607 157.077 118.033C154.352 118.923 153.35 120.118 152.938 122.881C152.479 126.048 154.024 125.989 157.139 122.756C158.045 121.81 159.622 120.585 160.624 120.063C162.345 119.138 164.396 117.692 165.714 116.442C166.201 116.033 165.51 116.06 162.84 116.592Z" fill="#B9D8FD"/>
<path d="M171.27 105.058C170.826 104.903 168.713 104.481 166.551 104.182C164.382 103.839 161.577 103.165 160.316 102.71C159.003 102.219 157.604 101.904 157.064 101.998C156.117 102.162 156.117 102.162 156.345 102.958C157.018 105.139 159.042 107.086 160.892 107.322C161.768 107.425 167.814 106.423 170.859 105.64L172.041 105.366L171.27 105.058Z" fill="#B9D8FD"/>
<path d="M152.532 131.4C152.459 131.111 152.541 129.82 152.713 128.514C152.885 127.207 152.919 126.041 152.787 125.948C152.655 125.855 150.946 126.035 148.937 126.36C140.532 127.678 124.775 127.091 109.978 124.922C101.245 123.628 95.4569 123.146 91.1026 123.321C89.0287 123.402 88.7684 123.099 89.9142 121.925C91.513 120.279 97.2969 116.236 101.062 114.098C103.05 112.964 104.647 111.991 104.65 111.874C104.609 111.765 102.298 112.909 99.5189 114.435C95.0931 116.78 93.0725 118.129 87.185 122.654C86.2593 123.348 85.3206 123.557 82.0938 123.815C72.6124 124.531 55.9788 126.973 37.9843 130.279C24.8225 132.677 15.6589 135.124 6.2023 138.713C2.05937 140.267 1.20844 140.856 1.52004 141.869C2.22234 143.952 3.92035 143.844 12.6214 141.267C21.8929 138.5 32.1788 135.695 39.41 134.024L44.9364 132.694L48.8583 135.704C52.5012 138.438 57.7539 141.635 59.311 142.062C59.6758 142.161 57.3589 140.404 54.2213 138.186C48.3679 134.049 47.1431 132.985 47.5918 132.35C47.9096 131.9 65.0379 129.093 70.875 128.499C86.5498 126.965 95.1098 127.105 112.717 129.159C131.459 131.34 136.654 131.878 140.773 132.092C146.369 132.399 152.332 132.409 152.519 132.145C152.613 132.012 152.604 131.689 152.532 131.4Z" fill="#B9D8FD"/>
<path d="M149.859 133.279C149.25 133.245 146.454 133.173 143.632 133.082C140.765 132.999 138.469 133.002 138.484 133.093C138.518 133.156 138.786 133.504 139.099 133.845C139.56 134.368 139.782 134.446 140.168 134.124C140.527 133.783 141.122 134.005 143.384 135.167C146.034 136.565 146.158 136.613 146.268 135.897C146.352 135.163 146.968 134.964 147.672 135.422C147.936 135.608 150.384 134.047 150.795 133.465C150.87 133.359 150.46 133.267 149.859 133.279Z" fill="#B9D8FD"/>
<path d="M183.312 82.988C182.189 79.9334 182.189 78.7034 183.232 77.3388C183.876 76.4846 184.166 75.738 184.253 74.609C184.34 73.7584 184.611 72.7598 184.872 72.3895C185.489 71.5167 187.036 71.0629 188.363 71.3665C189.762 71.681 189.926 71.2812 188.713 70.4239C187.263 69.3989 184.668 68.5956 183.549 68.836C181.709 69.2014 180.915 69.9889 180.699 71.5814C180.577 72.3683 180.142 73.4882 179.674 74.1495C179.02 75.0752 178.879 75.6103 179.022 76.8619C179.353 80.0306 180.918 82.962 182.921 84.1001L183.9 84.673L183.312 82.988Z" fill="#B9D8FD"/>
<path d="M161.529 112.294C161.397 112.201 160.95 112.162 160.537 112.188C160.097 112.194 159.548 111.965 159.287 111.662C158.967 111.276 158.279 111.187 156.821 111.346C155.229 111.53 154.755 111.473 154.633 111.029C154.538 110.605 154.136 110.559 152.818 110.857C151.906 111.085 150.731 111.404 150.187 111.615C149.534 111.867 149.113 111.847 148.826 111.526C148.411 110.994 146.365 111.651 144.772 112.786C143.82 113.461 143.324 113.269 143.681 112.371C143.808 112.024 143.818 111.675 143.739 111.619C143.396 111.376 139.694 114.432 138.163 116.206C136.782 117.768 136.617 117.89 136.127 117.464C135.69 117.076 135.427 117.168 134.386 118.137C132.783 119.622 132.166 120.495 132.588 120.793C133.16 121.158 140.167 121.986 146.12 122.346C151.393 122.662 151.761 122.644 152.052 121.898C153.076 119.33 153.754 118.539 155.655 117.583C156.829 116.985 157.819 116.256 158.268 115.621C158.66 115.066 159.593 114.138 160.308 113.573C161.841 112.356 161.766 112.462 161.529 112.294Z" fill="#B9D8FD"/>
<path d="M151.828 124.675C151.771 124.476 148.693 124.244 145.01 124.14C141.328 124.035 136.904 123.804 135.134 123.624C133.364 123.444 131.804 123.412 131.692 123.571C131.449 123.915 132.003 125.536 132.478 125.872C132.82 126.114 136.755 126.198 141.959 126.108C146.069 125.999 152.048 125.148 151.828 124.675Z" fill="#B9D8FD"/>
<path d="M189.271 66.6138C188.799 64.6534 188.557 64.3239 185.899 61.6516C184.364 60.1306 182.822 58.5645 182.404 58.1497C181.48 57.219 178.919 56.7578 177.211 57.2164C176.299 57.4442 175.786 57.8349 175.131 58.7607C174.495 59.66 173.862 60.1643 172.902 60.5166C171.052 61.2319 170.525 62.0891 170.716 64.1679C170.813 65.149 170.686 66.4475 170.478 67.1335C170.262 67.7743 170.181 69.3433 170.325 70.5949C170.654 73.4853 170.569 73.941 169.442 76.0396C168.93 76.987 168.29 78.6763 168.042 79.8101C167.709 81.3995 167.25 82.3842 166.099 84.0692C165.239 85.2859 164.652 86.3391 164.732 86.395C164.837 86.4696 165.565 86.1113 166.386 85.6208C170.96 82.7854 173.447 78.3158 173.888 72.0427C174.314 65.9578 177.586 62.2806 181.876 63.0918C183.259 63.3161 184.001 63.7213 186.506 65.4919C188.114 66.6288 189.459 67.5793 189.477 67.5528C189.477 67.5528 189.382 67.1284 189.271 66.6138Z" fill="#B9D8FD"/>
<path d="M175.794 74.3813C176.622 72.7059 176.993 71.3419 177.308 68.8272C177.549 66.975 177.649 65.3796 177.543 65.305C177.201 65.0627 175.717 67.3855 175.327 68.776C175.127 69.507 174.814 71.3484 174.699 72.8537C174.539 74.3668 174.244 76.1817 174.017 76.894C173.642 78.0964 173.65 78.1414 174.147 77.3822C174.446 76.959 175.185 75.5776 175.794 74.3813Z" fill="#B9D8FD"/>
<path d="M155.42 100.519C155.134 100.197 154.517 99.1667 154.052 98.203C153.541 97.2471 153.046 96.3814 152.941 96.3069C152.572 96.046 145.781 99.2191 140.58 102.047C135.914 104.62 135.393 104.966 133.941 106.796C132.482 108.58 132.396 108.758 132.871 109.093C133.398 109.466 133.361 109.519 131.199 111.402C129.738 112.63 130.669 112.376 134.075 110.579C139.637 107.688 148.135 104.056 151.788 103.028C155.395 102.008 156.182 101.454 155.42 100.519Z" fill="#B9D8FD"/>
<path d="M166.762 81.2853C166.955 80.7875 167.208 79.8155 167.281 79.153C167.361 78.5356 167.931 77.1139 168.51 76.0156C169.088 74.9173 169.588 73.7631 169.632 73.4769C169.678 72.7958 169.283 69.383 169.125 69.2712C169.046 69.2153 168.323 69.7352 167.487 70.4139C166.67 71.0661 164.519 72.5996 162.674 73.7549C156.698 77.6225 154.545 79.8293 153.13 83.5095C152.355 85.5005 151.915 88.6404 152.201 89.9137C152.35 90.6537 152.414 90.6194 153.288 89.2146C154.54 87.1641 155.602 86.7247 159.506 86.6281C161.309 86.5939 163.056 86.3607 163.385 86.1179C164.139 85.4999 166.307 82.4317 166.762 81.2853Z" fill="#B9D8FD"/>
<path d="M151.755 92.3349L151.259 90.2393L149.534 90.051C148.372 89.9043 146.943 89.4094 145.23 88.4763C143.781 87.7296 142.08 87.0033 141.429 86.8608L140.207 86.6317L141.433 87.9742C142.093 88.7185 143.131 90.0471 143.679 90.9501C144.461 92.1374 145.053 92.7542 146.024 93.2821C147.428 94.0366 151.865 95.0312 152.127 94.6609C152.176 94.5364 152.044 93.4916 151.755 92.3349Z" fill="#B9D8FD"/>
<path d="M130.443 109.955C130.276 109.52 130.436 109.237 131.246 108.539C132.755 107.187 134.617 104.497 133.941 104.614C132.905 104.794 133.024 104.402 134.684 102.164C136.326 99.9533 136.356 99.8553 135.746 99.5433C135.234 99.2607 135.241 99.0274 135.756 97.9634C136.461 96.5182 137.569 92.9378 137.522 92.3889C137.483 92.1635 136.751 92.36 135.877 92.8132C133.529 94.0094 132.429 94.2234 131.946 93.5645C131.644 93.1527 130.956 93.0631 129.438 93.1406C128.288 93.2006 127.251 93.102 127.175 92.9294C127.092 92.7118 125.961 92.7454 124.654 92.972C122.491 93.347 122.277 93.3145 122.331 92.6785C122.404 92.016 122.306 91.9866 120.924 92.3189C120.121 92.5046 118.924 92.9675 118.26 93.2915C117.45 93.7104 116.973 93.7699 116.765 93.5042C116.569 93.167 116.017 93.3322 114.749 94.0626C113.572 94.7773 112.885 94.966 112.542 94.7238C112.041 94.3696 110.425 95.3693 108.579 97.1979C107.987 97.8111 107.597 97.9716 107.255 97.7293C106.701 97.3379 105.79 98.1224 104.295 100.238C103.248 101.72 102.733 101.832 102.481 100.622C102.263 99.4766 99.8924 103.949 99.1436 106.91C98.3727 110.015 98.3353 110.068 97.7816 109.676C97.4388 109.434 97.2552 109.582 96.9196 110.336C96.4124 111.445 96.1109 114.445 96.4536 114.688C96.6118 114.799 98.0376 114.181 99.6503 113.298C102.692 111.68 109.171 108.723 114.124 106.75C118.796 104.896 126.585 101.596 127.65 101.04C128.67 100.492 129.321 100.634 128.872 101.269C128.611 101.639 118.887 106.388 111.936 109.566C108.728 111.028 100.188 115.502 98.7519 116.471C97.4249 117.397 97.9642 117.977 101.81 119.584C102.837 120.033 103.33 120.064 103.573 119.72C103.834 119.349 104.244 119.441 105.867 120.389C108.329 121.773 109.822 122.233 109.956 121.653C110.026 121.386 111.16 121.236 112.773 121.304C115.103 121.364 115.482 121.275 115.498 120.692C115.515 120.109 115.996 119.933 118.744 119.457C121.835 118.944 122.964 118.354 122.147 117.776C121.514 117.329 122.046 116.911 123.788 116.516C124.682 116.315 125.849 115.95 126.359 115.676C127.252 115.197 127.289 115.144 126.908 114.676C126.501 114.19 126.519 114.163 128.273 112.745C130.458 110.997 130.701 110.653 130.443 109.955Z" fill="#B9D8FD"/>
<path d="M91.7074 148.42C88.7012 147.247 87.752 146.576 88.2007 145.942C88.3689 145.704 87.9989 145.164 87.0717 144.35C86.3028 143.648 85.5933 142.75 85.5055 142.371C85.3948 141.856 84.9576 141.468 83.7567 140.817C82.2284 140.015 82.168 139.932 82.542 139.403C83.0468 138.689 81.9844 137.898 79.9724 137.389C78.8856 137.136 78.5769 136.957 78.6057 136.581C78.6157 136.231 78.2619 136.06 77.0323 135.786C76.1224 135.619 75.4489 135.341 75.4819 135.127C75.5174 134.517 75.0361 134.415 73.2633 134.629C71.8774 134.8 71.4939 134.727 71.3721 134.284C71.269 133.815 70.8481 133.795 69.3654 134.214C68.3443 134.484 67.443 134.641 67.3375 134.566C67.2321 134.491 67.2608 134.115 67.4061 133.742C67.6218 133.101 67.4416 133.132 65.6333 133.956C64.5153 134.475 62.8389 135.392 61.9242 136.015C60.3345 137.033 59.497 137.155 59.7382 136.255C59.8868 135.765 56.6648 137.414 56.216 138.049C55.9356 138.446 56.1806 138.659 58.3306 139.98C63.2746 142.999 69.8145 145.718 77.7997 148.07C80.4402 148.865 82.0543 149.491 82.1004 149.761C82.2538 150.663 71.7574 148.003 64.9889 145.44C61.7683 144.235 55.9538 141.553 54.6695 140.685C53.984 140.2 53.6234 142.444 53.9969 145.048C54.1556 146.39 54.3181 146.664 54.8214 146.623C55.3061 146.609 55.4269 146.773 55.3957 147.545C55.3444 149.016 55.6881 151.718 56.0362 152.4C56.2481 152.828 56.5117 153.014 56.8799 152.997C57.2217 152.96 57.8775 153.543 58.9792 154.837C60.9825 157.205 60.9034 157.15 61.3521 156.515C61.6887 156.039 61.9106 156.116 63.9409 157.551C66.5512 159.396 68.0071 159.91 67.9174 158.974C67.8355 158.083 68.4927 157.992 69.5474 158.738C70.0747 159.11 71.0383 159.593 71.7229 159.799C72.7612 160.176 72.9602 160.119 72.9209 159.615C72.8816 159.111 73.2718 158.951 75.3864 158.7C76.9602 158.543 77.9099 158.263 77.954 157.976C77.9531 157.698 78.9325 157.319 80.3405 157.006C82.6871 156.483 83.7446 155.882 82.748 155.614C81.9282 155.431 82.6737 154.768 83.9168 154.575C84.5289 154.492 85.5314 154.249 86.1018 154.057C87.0438 153.731 87.1373 153.599 86.9815 153.092C86.8444 152.559 87.1479 152.298 89.4015 150.955C92.5852 149.081 92.8249 148.853 91.7074 148.42Z" fill="#B9D8FD"/>
<path d="M101.192 128.905C100.853 128.825 98.8313 128.665 96.7004 128.547C93.1453 128.374 92.6045 128.468 90.0906 129.507C88.5747 130.141 85.1485 131.408 82.4313 132.344C76.5802 134.356 76.389 134.459 77.6493 134.913C78.1646 135.079 79.0568 135.551 79.6292 135.916C80.552 136.568 80.8751 136.559 82.6206 136.047C85.6422 135.129 95.5537 131.623 98.3567 130.511C102.049 129.035 101.922 129.104 101.192 128.905Z" fill="#B9D8FD"/>
<path d="M52.8382 143.555C52.8329 143.115 52.9125 142.219 53.0568 141.568L53.3047 140.434L40.8783 142.519C34.0287 143.706 26.6681 144.889 24.4897 145.174C13.478 146.712 12.3591 146.953 11.4991 148.169C11.3121 148.434 11.2469 149.141 11.3653 149.701L11.5945 150.775L14.5475 150.681C23.4254 150.372 36.2617 148.378 48.4896 145.4C52.5894 144.41 52.8708 144.292 52.8382 143.555Z" fill="#B9D8FD"/>
<path d="M65.1156 121.096C64.7201 120.816 64.8313 120.379 65.7719 118.545C66.9513 116.205 67.0845 115.625 66.2854 115.973C65.5313 116.312 65.6085 115.811 66.5797 114.158C67.749 112.168 67.9197 111.535 67.3626 111.26C66.7868 111.012 66.8266 110.564 67.7131 107.184C68.1249 105.651 68.3684 104.355 68.2629 104.281C68.1575 104.206 67.6134 104.417 67.0395 104.725C65.2169 105.737 63.4407 106.068 62.9388 105.436C62.573 105.058 61.9488 104.934 60.6717 105.063C59.7101 105.137 58.7518 105.094 58.5408 104.945C58.3035 104.777 57.2671 104.957 56.2349 105.298C54.2157 105.973 54.0091 105.986 53.8711 105.175C53.7637 104.543 51.9324 105.232 50.4074 106.494C49.8192 106.991 49.185 107.217 48.8388 107.091C48.3949 106.936 47.9486 107.176 47.2075 108.001C45.7362 109.579 45.4812 109.716 45.1374 109.195C44.8541 108.757 44.6595 108.976 43.2505 111.193C42.0098 113.172 41.6469 113.63 41.3569 113.425C40.8559 113.071 40.46 113.743 39.8324 115.917C39.1641 118.261 39.1267 118.314 38.4666 117.57C38.1723 117.203 37.8822 116.998 37.8261 117.077C37.3587 117.739 37.3506 120.827 37.8371 123.551C38.1703 125.373 38.386 126.914 38.3486 126.966C38.2925 127.046 38.0706 126.968 37.8333 126.801C37.2532 126.391 37.1166 127.087 37.5116 128.318L37.8496 129.351L39.4982 129.088C41.049 128.796 41.2777 128.64 44.6181 125.369C48.262 121.836 51.1844 119.38 55.1874 116.458C60.1875 112.852 61.0648 112.282 61.4339 112.543C61.9085 112.879 62.002 112.747 59.5437 114.658C54.9755 118.212 53.5143 119.44 50.7952 122C47.1359 125.443 45.0884 127.724 45.551 127.853C45.7203 127.893 49.7275 127.315 54.4404 126.521L62.9727 125.134L64.2815 123.283C65.4219 121.669 65.5375 121.394 65.1156 121.096Z" fill="#B9D8FD"/>
</svg>
