<svg width="179" height="197" viewBox="0 0 179 197" fill="none" xmlns="http://www.w3.org/2000/svg">
<path d="M7.27714 179.503C7.01172 179.174 6.71759 178.903 6.46838 178.576C6.46736 178.574 6.46736 178.572 6.46635 178.57C6.44609 178.452 6.54706 178.326 6.66289 178.207C6.76892 178.099 6.88779 177.996 6.9354 177.915C7.07926 177.668 7.17111 177.364 7.18867 177.045C7.19745 176.89 7.18968 176.733 7.214 176.581C7.34029 175.779 8.06328 176.39 8.41651 176.566C8.94769 176.831 9.49948 177.069 10.0374 177.378C10.0381 177.379 10.0401 177.378 10.0401 177.38C10.0428 177.382 10.0455 177.383 10.0459 177.384C10.1593 177.484 10.2191 177.601 10.1178 177.718C10.1171 177.719 10.1168 177.72 10.1141 177.721C9.84325 177.828 9.48529 177.931 9.30632 178.219C9.16348 178.45 9.11721 178.768 9.18576 179.056C9.27694 179.44 9.54777 179.732 9.83548 179.942C10.2519 180.246 10.7256 180.433 11.2072 180.478C11.3899 180.495 11.5766 180.492 11.7475 180.424C11.9177 180.356 12.0713 180.217 12.1351 180.021C11.6793 180.107 11.2366 180.206 10.8296 179.826C10.5808 179.594 10.4231 179.213 10.4595 178.849C10.496 178.486 10.7439 178.166 11.0525 178.134C11.3257 178.106 11.5915 178.288 11.8204 178.486C12.5765 179.139 13.3964 180.115 13.4298 181.215C13.4461 181.739 13.2519 182.262 12.8781 182.535C12.5907 182.745 12.2246 182.796 11.8744 182.754C10.5895 182.598 9.18948 181.684 8.24091 180.663C7.90187 180.296 7.58917 179.89 7.27714 179.503Z" fill="white"/>
<path d="M13.3251 185.976C12.4556 186.114 11.6346 185.742 10.9498 185.067C10.3788 184.505 9.7652 183.934 9.41671 183.107C9.35795 182.966 9.31472 182.816 9.25867 182.653C10.0046 182.993 10.705 183.337 11.4368 183.573C11.7934 183.687 12.1871 183.707 12.5555 183.678C13.3748 183.614 13.7712 183.012 14.0089 182.202C14.0883 181.931 14.197 181.669 14.3433 181.26C15.2182 182.548 15.7035 183.841 16.3863 185.015C16.0452 185.049 15.7599 185.078 15.5289 185.099C15.1503 184.509 14.7826 183.922 14.4108 183.317C14.3892 183.326 14.3672 183.336 14.3463 183.346C14.4142 183.786 14.5121 184.217 14.5452 184.639C14.6387 185.832 14.3146 185.818 13.3251 185.976Z" fill="white"/>
<path d="M22.5742 182.767C22.7569 183.152 22.901 183.496 23.0719 183.814C23.3161 184.269 23.5504 184.697 23.8061 185.092C24.0884 185.529 24.3977 185.925 24.681 186.327C24.7138 186.373 24.7333 186.434 24.7458 186.492C25.0244 187.766 24.1522 189.128 22.8707 189.484C22.2588 189.654 21.6266 189.653 21.0049 189.68C19.3435 189.752 17.7 189.964 16.0618 190.007C14.4237 190.051 12.7261 189.974 11.1555 189.306C9.98307 188.808 8.89199 187.907 8.24228 186.664C7.85529 185.925 7.00228 184.102 8.53573 184.506C8.89605 184.601 9.23036 184.877 9.49207 185.196C10.1597 186.011 10.4714 186.608 11.4598 186.961C12.2371 187.239 13.0841 187.273 13.8358 187.016C14.419 186.817 14.9454 186.454 15.5644 186.306C16.025 186.195 16.6389 186.239 17.0019 186.573C17.3619 186.905 17.4214 187.431 17.7672 187.756C18.1241 188.09 18.6644 188.282 19.149 188.12C19.5299 187.993 19.8034 187.675 20.0405 187.349C20.9357 186.122 21.6259 184.595 22.3999 183C22.4283 182.94 22.4799 182.891 22.5742 182.767Z" fill="white"/>
<path d="M19.1186 184.131C19.5123 182.373 20.0304 180.535 21.6962 179.291C21.8539 180.043 21.9944 180.707 22.1176 181.362C22.1321 181.439 22.0974 181.543 22.0612 181.621C21.6492 182.51 21.2278 183.367 20.8158 184.187C20.4997 184.816 20.1948 185.429 19.8774 186.008C19.6386 186.443 19.2625 186.724 18.8272 186.905C18.3983 187.083 17.7732 186.758 17.6307 186.276C16.9699 184.042 16.0689 181.846 14.1816 179.726C13.2786 178.712 12.2513 177.819 11.1623 177.117C10.619 176.766 10.0658 176.462 9.51335 176.211C9.29521 176.112 8.10755 175.472 7.94073 175.649C8.14537 175.431 8.33988 175.169 8.59822 175.044C9.75041 174.487 11.0171 174.199 12.3581 174.128C13.1864 174.085 14.0316 174.012 14.8725 174.061C15.9183 174.122 16.9679 174.333 18.0171 174.411C18.888 174.475 19.7646 174.483 20.625 174.438C21.1738 174.41 21.2447 174.454 21.2842 175.108C21.3419 176.066 21.3943 177.023 21.5307 177.94C21.6134 178.498 21.3612 178.724 21.0593 178.96C20.6487 179.281 20.1982 179.547 19.8085 179.891C19.1348 180.485 18.815 181.285 18.8704 182.194C18.9119 182.856 18.9987 183.496 19.1186 184.131ZM18.065 181.474C18.0404 179.839 17.3616 178.421 16.3921 177.21C15.8211 176.496 15.0045 175.983 14.2295 175.574C13.6629 175.274 12.9878 175.067 12.2459 175.436C12.7906 175.871 13.2992 176.21 13.7473 176.641C14.8198 177.671 15.7633 178.859 16.4698 180.204C17.2552 181.7 17.7179 183.235 18.0137 184.713C18.0694 184.991 18.219 185.245 18.3243 185.503C18.2663 184.225 18.0859 182.884 18.065 181.474Z" fill="white"/>
<path d="M0.0681325 173.364C0.118448 173.645 0.190714 173.913 0.275812 174.173C0.269733 174.159 0.263655 174.143 0.257576 174.13C0.239003 174.087 0.222119 174.042 0.205234 173.998C0.150866 173.79 0.0978492 173.591 0.0593526 173.379C-0.0429673 172.809 -0.00413306 172.233 0.108318 171.676C0.111357 171.663 0.114734 171.651 0.117773 171.639C0.000594597 172.204 -0.0365512 172.783 0.0681325 173.364Z" fill="white"/>
<path d="M12.0186 164.177C12.6592 163.948 13.2796 163.628 13.9094 163.362C14.0063 163.321 14.2042 163.229 14.2872 163.29C14.1157 163.565 13.673 163.815 13.4177 164.023C13.1134 164.272 12.8061 164.52 12.4941 164.764C11.8829 165.242 11.2528 165.704 10.601 166.11C10.444 166.208 10.2873 166.305 10.1289 166.397C8.997 167.057 7.82015 167.524 6.70037 167.857C5.70385 168.154 4.47196 168.148 3.8371 169.274C3.82697 169.293 3.81549 169.311 3.80603 169.33C3.50481 169.768 3.30828 170.286 3.11985 170.813C3.44166 171.223 3.78678 170.868 4.07686 170.524C4.81404 169.652 5.81461 169.227 6.84828 168.901C7.47604 168.702 8.12677 168.529 8.77783 168.274C9.43025 168.019 9.98744 167.615 10.6193 167.24C10.5676 167.43 10.5271 167.613 10.4693 167.788C10.1536 168.746 9.79158 169.69 9.01455 170.217C8.58231 170.51 8.13454 170.752 7.69824 170.996C7.12755 171.315 6.53051 171.495 6.01249 171.88C5.51879 172.248 5.09634 172.752 4.77993 173.349C4.48242 173.911 4.27947 174.552 4.17479 175.221C4.12245 175.556 4.09476 175.898 4.09273 176.241C4.09104 176.536 4.12245 176.74 4.00797 176.979C3.71283 176.567 3.35994 176.205 3.16037 175.699C2.8372 174.878 2.62918 173.981 2.36849 173.146C2.28305 172.873 2.14561 172.641 1.98555 172.285C1.98014 172.533 1.96258 172.649 1.97812 172.754C2.13683 173.837 2.29352 174.938 2.48195 176.035C2.69503 177.274 3.24412 178.301 3.99109 179.099C4.63236 179.785 5.4499 180.018 6.20464 180.612C6.31473 180.699 7.05359 181.479 7.5554 182.099C7.86574 182.482 8.08253 182.803 7.99237 182.87C6.04424 184.306 3.9222 181.745 2.73589 179.882C1.58471 178.075 0.84078 175.929 0.271436 173.942C-0.14426 172.491 0.160336 170.672 0.874887 169.456C1.58944 168.24 2.69098 167.555 3.92726 167.116C5.13011 166.689 6.44237 166.407 7.78773 165.844C9.15503 165.27 10.5706 164.695 12.0186 164.177Z" fill="white"/>
<path d="M5.85375 177.421C5.03519 177.507 4.95313 175.42 5.18512 174.792C5.4313 174.125 5.89258 173.647 6.36738 173.216C7.28387 172.383 8.32091 171.623 9.49674 171.285C11.1339 170.815 12.9341 171.228 14.6239 171.882C15.4094 172.186 16.1952 172.668 17.0083 172.834C17.9305 173.023 18.9061 172.991 19.827 172.887C20.0698 172.86 20.3376 172.771 20.5807 172.798C20.5915 172.8 20.6023 172.801 20.6135 172.803C20.6814 172.813 20.9721 172.984 21.0207 172.94C20.1221 173.786 18.8045 173.629 17.7164 173.6C16.4582 173.567 15.2047 173.367 13.9637 173.241C12.3144 173.074 10.6385 173.049 9.19451 173.656C8.28208 174.04 7.45271 174.701 6.86547 175.598C6.56796 176.052 6.37953 177.366 5.85375 177.421Z" fill="white"/>
<path d="M12.8699 153.2C12.5663 152.976 12.3039 152.776 12.0446 152.572C12.0139 152.547 11.9929 152.489 11.9804 152.441C11.841 151.887 11.7103 151.337 11.5813 150.801C11.482 150.388 11.3773 149.983 11.301 149.59C11.2436 149.295 11.2926 148.995 11.4003 148.71C11.5067 148.428 11.8693 148.274 12.0898 148.411C13.1144 149.048 14.1953 149.554 15.5718 149.523C16.2306 149.508 16.8925 149.389 17.5135 149.168C17.8235 149.058 18.1233 148.923 18.4077 148.763C18.5201 148.7 19.1638 148.391 19.1682 148.248C19.1624 148.424 19.1742 148.612 19.1185 148.778C18.8693 149.523 18.4891 150.22 18.0136 150.87C17.7201 151.271 17.4284 151.694 17.0985 152.068C16.6885 152.532 16.2289 152.941 15.8112 153.402C15.464 153.785 15.1334 154.193 14.8251 154.613C14.6286 154.882 14.5887 154.897 14.3659 154.659C14.0403 154.309 13.7145 153.957 13.368 153.658C13.1576 153.477 13.1796 153.268 13.2177 153.032C13.2694 152.711 13.3562 152.395 13.3923 152.073C13.4544 151.513 13.3096 151.039 12.9854 150.691C12.7494 150.439 12.5035 150.216 12.2398 150.009C12.6919 150.928 13.0985 151.92 12.8699 153.2ZM13.5325 150.608C14.0829 151.267 14.79 151.509 15.537 151.536C15.9773 151.551 16.4444 151.372 16.8631 151.173C17.169 151.027 17.4854 150.794 17.6438 150.306C17.3055 150.388 17.009 150.49 16.7067 150.529C15.9827 150.621 15.2621 150.602 14.556 150.382C13.7709 150.138 13.0827 149.721 12.4708 149.246C12.3553 149.156 12.2114 149.121 12.0828 149.063C12.54 149.571 13.058 150.04 13.5325 150.608Z" fill="white"/>
<path d="M19.357 146.654C19.6241 146.254 20.3305 146.96 20.4497 147.299C20.5763 147.659 20.5622 148.052 20.527 148.435C20.4592 149.175 20.3143 149.956 19.9817 150.643C19.5187 151.599 18.718 152.275 17.8796 152.807C17.4902 153.055 17.0441 153.234 16.6872 153.548C16.2823 153.906 15.9267 154.376 15.6147 154.847C15.5323 154.971 15.46 155.131 15.3611 155.235C15.3567 155.239 15.3523 155.243 15.3472 155.248C15.3189 155.275 15.1561 155.344 15.1514 155.384C15.2199 154.633 15.7636 154.076 16.1803 153.578C16.6622 153.002 17.1941 152.494 17.6972 151.963C18.3648 151.259 18.9933 150.488 19.3401 149.581C19.5592 149.007 19.6561 148.365 19.5819 147.765C19.5437 147.462 19.1854 146.911 19.357 146.654Z" fill="white"/>
<path d="M13.8962 146.632C14.1965 146.218 14.6395 146.055 15.1113 146.049C15.505 146.044 15.9045 145.994 16.2857 146.155C16.3506 146.183 16.4124 146.22 16.4829 146.256C16.1071 146.445 15.7414 146.614 15.3905 146.823C15.22 146.925 15.063 147.081 14.9309 147.247C14.6371 147.617 14.6766 148.033 14.8455 148.463C14.9022 148.607 14.9448 148.76 15.0207 148.988C14.2751 148.864 13.6673 148.553 13.0024 148.362C13.1256 148.194 13.2283 148.054 13.3124 147.943C13.6585 148.026 13.9938 148.107 14.3325 148.19C14.3379 148.176 14.3433 148.164 14.3484 148.15C14.1799 148.001 14.0019 147.866 13.851 147.706C13.4242 147.25 13.5548 147.104 13.8962 146.632Z" fill="white"/>
<path d="M18.9949 147.393C19.0419 147.453 19.0956 147.506 19.1354 147.571C19.3482 147.919 18.8855 148.031 18.6995 148.128C18.4192 148.273 18.1409 148.436 17.8444 148.564C17.8444 148.564 17.8434 148.565 17.8427 148.564C17.8414 148.565 17.8397 148.566 17.8397 148.566C17.7661 148.58 17.7077 148.563 17.7077 148.473C17.7077 148.473 17.7077 148.471 17.708 148.471C17.7755 148.308 17.8731 148.108 17.8478 147.922C17.8272 147.773 17.7431 147.637 17.6273 147.561C17.473 147.461 17.2828 147.473 17.113 147.519C16.8665 147.587 16.6345 147.722 16.4427 147.915C16.3701 147.988 16.3015 148.07 16.2596 148.171C16.2174 148.272 16.2043 148.393 16.2428 148.497C16.3849 148.263 16.5176 148.033 16.7861 147.997C16.9499 147.976 17.1268 148.049 17.2275 148.202C17.3278 148.355 17.3376 148.585 17.2342 148.734C17.1427 148.867 16.9877 148.916 16.8412 148.943C16.3572 149.031 15.7433 149.022 15.38 148.602C15.2071 148.402 15.1142 148.108 15.1696 147.839C15.2118 147.631 15.3354 147.456 15.4806 147.325C16.0152 146.844 16.8074 146.589 17.4652 146.56C17.7009 146.549 17.9373 146.569 18.1727 146.567C18.3726 146.567 18.5647 146.531 18.7596 146.533C18.7606 146.533 18.7613 146.534 18.7623 146.534C18.8075 146.565 18.8122 146.653 18.8092 146.746C18.8065 146.83 18.7964 146.92 18.8055 146.97C18.8342 147.122 18.8987 147.27 18.9949 147.393Z" fill="white"/>
<path d="M10.1667 151.878C9.90703 151.837 9.65173 151.825 9.40556 151.798C9.37719 151.795 9.34882 151.779 9.3235 151.762C8.77002 151.376 8.53871 150.366 8.86829 149.564C9.02566 149.181 9.25765 148.857 9.4866 148.532C10.0978 147.662 10.6911 146.74 11.3699 145.987C12.049 145.234 12.8355 144.665 13.6986 144.427C14.3429 144.251 15.0274 144.232 15.6353 144.428C15.9969 144.545 16.857 144.829 16.1786 145.285C16.0192 145.392 15.8125 145.426 15.6184 145.411C15.1223 145.374 14.8248 145.271 14.3216 145.495C13.9262 145.671 13.5693 145.98 13.3504 146.398C13.1806 146.722 13.0874 147.098 12.8936 147.442C12.7494 147.697 12.4947 147.963 12.2378 147.989C11.9821 148.016 11.7751 147.815 11.5202 147.835C11.2571 147.855 10.9677 148.027 10.8353 148.332C10.7313 148.572 10.7415 148.845 10.7654 149.099C10.8569 150.058 11.1517 151.03 11.4016 152.046C11.4108 152.084 11.4084 152.129 11.4155 152.224C11.221 152.156 11.0531 152.087 10.884 152.042C10.6408 151.977 10.4014 151.916 10.1667 151.878Z" fill="white"/>
<path d="M35.2601 185.881C35.2631 185.876 35.2665 185.87 35.2696 185.865C35.2908 185.831 35.4367 185.713 35.4296 185.678C35.5775 186.34 35.1845 187.009 34.9022 187.585C34.5753 188.252 34.1748 188.88 33.8084 189.519C33.3221 190.367 32.8895 191.26 32.7855 192.155C32.7197 192.72 32.798 193.296 33.0398 193.78C33.162 194.026 33.6848 194.378 33.5757 194.658C33.4062 195.093 32.4775 194.748 32.2608 194.507C32.0301 194.251 31.9372 193.913 31.8687 193.573C31.7363 192.918 31.6674 192.201 31.8194 191.5C32.0315 190.523 32.6667 189.637 33.3778 188.872C33.7084 188.516 34.116 188.198 34.3912 187.799C34.7036 187.346 34.9315 186.817 35.1136 186.303C35.1615 186.167 35.1889 186.004 35.2601 185.881Z" fill="white"/>
<path d="M41.3044 186.817C41.5587 186.76 41.7991 186.681 42.0318 186.617C42.0585 186.61 42.0882 186.612 42.1155 186.618C42.7089 186.746 43.083 187.492 43.0124 188.26C42.9787 188.626 42.8726 188.972 42.7734 189.323C42.5066 190.262 42.2925 191.265 41.9119 192.206C41.5313 193.146 40.9944 194.055 40.2086 194.683C39.622 195.152 38.8852 195.45 38.1646 195.481C37.736 195.499 36.7297 195.519 37.3153 194.846C37.4531 194.688 37.6547 194.568 37.861 194.503C38.3878 194.338 38.7319 194.311 39.1692 193.886C39.513 193.553 39.7632 193.112 39.8476 192.648C39.9128 192.288 39.8871 191.921 39.9823 191.554C40.0533 191.282 40.2174 190.955 40.4575 190.833C40.6959 190.712 40.9586 190.803 41.1909 190.687C41.43 190.567 41.6374 190.309 41.6617 190.003C41.6806 189.761 41.5877 189.539 41.4881 189.336C41.1112 188.572 40.5939 187.874 40.0857 187.119C40.0664 187.09 40.0573 187.052 40.0259 186.976C40.2322 186.961 40.4115 186.958 40.5851 186.936C40.832 186.903 41.0744 186.869 41.3044 186.817Z" fill="white"/>
<path d="M30.3042 196.988C30.0114 196.96 29.7541 196.847 29.5309 196.683C29.5258 196.678 29.5211 196.674 29.5167 196.67C29.7423 196.84 30.002 196.952 30.2998 196.982C30.444 196.996 30.5872 196.996 30.729 196.988C30.7209 196.989 30.7125 196.99 30.7043 196.991C30.6794 196.994 30.6547 196.997 30.6297 197C30.5196 197 30.4133 196.999 30.3042 196.988Z" fill="white"/>
<path d="M29.5015 194.138C29.6153 194.398 29.7912 194.617 29.9736 194.83C30.2377 194.745 30.1694 194.486 30.0935 194.256C29.9006 193.672 29.9689 193.043 30.0864 192.417C30.1573 192.038 30.2454 191.651 30.2981 191.244C30.3511 190.836 30.3126 190.448 30.3035 190.027C30.3754 190.096 30.4474 190.157 30.5115 190.225C30.8634 190.599 31.1879 191.003 31.2227 191.533C31.2416 191.828 31.2342 192.12 31.2298 192.405C31.2244 192.78 31.1504 193.139 31.1879 193.496C31.2237 193.835 31.3379 194.163 31.5212 194.446C31.6934 194.712 31.9258 194.939 32.1932 195.115C32.3269 195.203 32.4701 195.279 32.619 195.341C32.7477 195.395 32.8443 195.415 32.9199 195.516C32.6667 195.593 32.4201 195.711 32.1473 195.727C31.7042 195.752 31.2528 195.708 30.809 195.702C30.6642 195.701 30.5277 195.726 30.3275 195.741C30.4366 195.793 30.4832 195.824 30.5341 195.836C31.0552 195.96 31.5952 196.047 32.1253 196.131C32.7244 196.225 33.3015 196.119 33.8313 195.892C34.2859 195.697 34.5898 195.357 35.0352 195.114C35.1 195.078 35.6221 194.885 36.0182 194.774C36.2627 194.705 36.4579 194.671 36.4626 194.731C36.5717 196.042 34.9312 196.419 33.8506 196.633C32.8024 196.841 31.686 196.942 30.6216 196.954C29.8443 196.963 29.0817 196.472 28.7501 195.798C28.4185 195.124 28.4357 194.34 28.556 193.582C28.6725 192.845 28.842 192.107 28.9423 191.26C29.0439 190.398 29.1537 189.506 29.2682 188.602C29.3188 188.202 29.3215 187.792 29.3512 187.387C29.3556 187.324 29.3614 187.195 29.4096 187.163C29.4964 187.319 29.5042 187.617 29.538 187.803C29.5782 188.025 29.6173 188.248 29.6524 188.471C29.721 188.91 29.775 189.352 29.7953 189.792C29.8 189.897 29.8027 190.003 29.8041 190.109C29.8112 190.863 29.723 191.594 29.5903 192.263C29.4721 192.859 29.1577 193.517 29.486 194.108C29.4907 194.118 29.4958 194.128 29.5015 194.138Z" fill="white"/>
<path d="M39.2334 192.67C39.0605 193.163 38.6657 193.501 38.1852 193.701C37.7843 193.868 37.3872 194.076 36.9371 194.062C36.8601 194.059 36.7841 194.047 36.6987 194.037C37.0391 193.731 37.372 193.445 37.6672 193.114C37.811 192.953 37.9235 192.75 38.0082 192.549C38.196 192.103 38.0339 191.757 37.7364 191.447C37.6368 191.344 37.5483 191.227 37.4034 191.056C38.197 190.879 38.8913 190.91 39.5913 190.808C39.5255 191.002 39.4697 191.164 39.4238 191.294C39.0605 191.362 38.7008 191.424 38.3351 191.485C38.3338 191.498 38.3321 191.513 38.3311 191.526C38.5441 191.59 38.7616 191.635 38.9592 191.713C39.5174 191.936 39.4296 192.109 39.2334 192.67Z" fill="white"/>
<path d="M30.3059 185.678C30.4909 185.448 30.7445 185.305 31.0228 185.224C31.3125 185.139 31.6313 185.121 31.9332 185.143C32.847 185.208 33.7804 185.288 34.7009 185.428C35.5239 185.553 33.6345 187.934 33.3738 188.195C32.7497 188.821 32.0693 189.399 31.5992 190.125C31.4733 190.319 31.4692 190.471 31.2575 190.392C30.7776 190.215 30.3893 189.253 30.2272 188.807C30.0009 188.183 29.899 187.511 29.9385 186.848C29.9621 186.431 30.0486 185.998 30.3059 185.678Z" fill="white"/>
<path d="M38.3331 186.692C38.689 186.77 39.0081 186.84 39.3181 186.915C39.3549 186.924 39.3911 186.965 39.4164 187.001C39.7018 187.412 39.9756 187.823 40.2417 188.222C40.4464 188.529 40.6507 188.827 40.8421 189.127C40.986 189.353 41.0333 189.622 41.0221 189.903C41.011 190.179 40.7192 190.45 40.4632 190.417C39.2766 190.266 38.0792 190.252 36.6855 190.8C36.0186 191.062 35.3729 191.42 34.7931 191.837C34.504 192.046 34.2315 192.271 33.9813 192.511C33.8823 192.605 33.3012 193.1 33.3356 193.224C33.2931 193.072 33.2282 192.916 33.2401 192.754C33.2914 192.031 33.4879 191.299 33.7939 190.567C33.9833 190.115 34.1633 189.646 34.395 189.206C34.6834 188.659 35.0362 188.142 35.3307 187.598C35.5745 187.146 35.7937 186.68 35.9851 186.212C36.107 185.914 36.1432 185.886 36.4366 186.006C36.8662 186.183 37.2991 186.361 37.7212 186.487C37.9775 186.563 38.0133 186.746 38.0417 186.958C38.0802 187.246 38.0839 187.542 38.1386 187.826C38.2338 188.318 38.508 188.663 38.9193 188.833C39.2189 188.956 39.5218 189.05 39.8311 189.126C39.1402 188.525 38.4634 187.845 38.3331 186.692ZM38.4114 189.107C37.6884 188.759 36.9121 188.816 36.1445 189.073C35.692 189.225 35.2652 189.551 34.8927 189.877C34.6202 190.116 34.3612 190.433 34.3352 190.908C34.6614 190.71 34.9366 190.512 35.2361 190.366C35.9527 190.015 36.6923 189.76 37.4676 189.682C38.3297 189.594 39.101 189.682 39.8362 189.853C39.9746 189.885 40.1235 189.861 40.2647 189.862C39.671 189.606 39.0341 189.407 38.4114 189.107Z" fill="white"/>
<path d="M35.8794 192.587C35.7156 192.666 35.511 192.664 35.3634 192.568C35.2162 192.472 35.1406 192.276 35.2054 192.109C35.2621 191.961 35.4083 191.861 35.5519 191.784C36.0263 191.529 36.6575 191.304 37.1515 191.533C37.3865 191.642 37.5685 191.864 37.5915 192.124C37.6094 192.323 37.5375 192.53 37.4264 192.702C37.0191 193.335 36.2603 193.812 35.5782 194.066C35.3334 194.156 35.0801 194.181 34.8343 194.261C34.6252 194.329 34.4338 194.411 34.2298 194.411C34.2288 194.411 34.2278 194.411 34.2268 194.411C34.171 194.411 34.142 194.4 34.1201 194.318C34.1001 194.242 34.0863 194.2 34.063 194.159C33.9927 194.037 33.8847 193.949 33.751 193.876C33.6861 193.842 33.6159 193.824 33.5561 193.781C33.24 193.556 33.6888 193.312 33.8553 193.163C34.1055 192.939 34.3497 192.492 34.6205 192.492C34.6205 192.492 34.6212 192.492 34.6222 192.492C34.6239 192.492 34.6404 192.482 34.6404 192.482C34.7127 192.443 34.8184 192.428 34.8184 192.507C34.8184 192.507 34.8184 192.508 34.8184 192.509C34.8184 192.673 34.7336 192.882 34.8127 193.035C34.8758 193.158 34.994 193.247 35.1355 193.272C35.3246 193.305 35.5154 193.228 35.6792 193.126C35.9169 192.978 36.1165 192.774 36.2603 192.534C36.3147 192.443 36.3603 192.345 36.3745 192.241C36.389 192.137 36.367 192.026 36.2975 191.95C36.2188 192.207 36.1479 192.459 35.8794 192.587Z" fill="white"/>
<path d="M28.6029 78.1597C26.5656 82.4942 25.0882 87.4709 24.3598 92.6637C23.6132 97.8549 23.5666 103.257 24.2143 108.448C24.5304 111.046 25.0014 113.599 25.6434 116.045C25.7856 116.658 25.9747 117.275 26.1621 117.889C26.256 118.197 26.3492 118.503 26.4427 118.809C26.5379 119.11 26.6392 119.389 26.7378 119.679C27.135 120.851 27.5304 121.911 27.8988 122.939C28.6519 124.978 29.1554 126.686 29.4069 128.247C29.5778 129.02 29.5697 129.77 29.6494 130.481C29.6595 131.328 29.6693 132.153 29.6784 132.957C29.6106 136.18 29.1419 139.026 28.6451 141.368C28.5094 141.953 28.4054 142.51 28.2716 143.032C28.1291 143.553 27.9951 144.043 27.8701 144.5C27.6472 145.418 27.3582 146.188 27.1677 146.823C27.0684 147.139 26.9803 147.421 26.904 147.665C26.8243 147.907 26.7426 148.109 26.6842 148.275C26.5639 148.604 26.5004 148.78 26.4981 148.786C25.9845 150.189 25.4171 151.563 24.8059 152.91C25.0001 153.186 25.1757 153.473 25.3091 153.818C25.3996 154.052 25.4968 154.27 25.5752 154.506C25.6755 154.807 25.6373 155.008 25.4485 155.132C24.9214 155.479 24.3595 155.973 23.7375 156.631C23.4991 156.884 23.2569 157.155 23.0118 157.428C22.7572 158.317 22.4938 159.137 22.2287 159.882C24.0883 160.416 25.7997 161.832 26.8699 163.701C27.5419 164.875 28.1386 166.176 28.4206 167.599C28.5563 168.283 28.7056 168.936 28.7977 169.642C28.8943 170.382 28.972 171.127 29.0321 171.873C29.151 173.352 29.1999 174.839 29.1807 176.314C29.1618 177.76 29.0929 179.205 28.8653 180.573C28.634 181.963 28.3858 183.374 27.9144 184.647C28.013 184.523 28.1166 184.403 28.2341 184.292C28.249 184.277 28.2693 184.27 28.3186 184.241C28.2875 185.004 28.5259 185.616 29.3225 185.696C29.073 185.672 28.4776 190.474 28.4189 190.914C28.3767 191.23 28.3385 191.551 28.1778 191.779C27.8451 192.252 26.8702 191.841 26.4484 191.63C26.0017 191.406 25.588 191.186 25.2669 190.818C25.1183 190.648 24.9687 190.492 24.8394 190.316C24.6735 190.09 24.6779 189.901 24.8488 189.726C25.325 189.235 25.822 188.61 26.2462 187.818C26.3708 187.585 26.4913 187.342 26.6112 187.094C25.9257 186.63 25.379 185.976 24.8995 185.209C24.2737 184.206 23.8067 182.98 23.4437 181.604C23.2725 180.956 23.1192 180.276 22.9841 179.576C22.304 174.953 21.5847 170.227 19.8446 166.048C19.72 166.338 19.5988 166.629 19.4711 166.918C19.9618 168.339 20.4372 169.84 20.8452 171.365C21.1538 172.522 18.7231 172.133 17.062 171.716C16.8658 172.034 16.7115 172.25 16.6548 172.252C16.6284 172.19 16.7004 171.965 16.8263 171.655C16.2485 171.502 15.7954 171.355 15.6424 171.289C14.2308 170.674 12.8537 169.922 11.4094 169.684C11.0228 169.621 10.7888 169.744 10.754 169.288C10.6756 168.256 11.8542 166.739 12.4093 166.077C13.186 165.151 14.1241 164.431 15.145 163.971C15.7866 163.682 16.4947 163.489 17.1616 163.679C17.4906 163.772 17.7789 163.954 18.0356 164.19C18.0501 164.17 18.0636 164.151 18.0788 164.131C18.2321 163.91 18.3952 163.67 18.5597 163.426C18.4793 163.285 18.403 163.141 18.3196 163.002L17.0769 161.539C16.8094 161.555 16.5477 161.546 16.2988 161.514C16.3208 161.667 16.3573 161.828 16.4123 162C13.5659 162.097 10.5808 163.509 7.94373 164.609C7.45071 164.815 6.92054 165.014 6.4525 164.917C5.48164 164.716 5.41883 162.62 5.42153 161.664C5.42491 160.651 5.41984 159.672 5.69911 158.72C5.82845 158.28 5.93077 157.845 6.08577 157.438C6.28129 156.925 6.59163 156.81 7.01914 157.028C7.35987 156.723 7.31833 156.55 7.48921 156.366C7.81406 156.014 8.25576 155.821 8.69307 155.628C8.84435 155.562 8.93789 155.749 9.00746 155.905C9.26309 156.477 9.53864 157.058 9.87228 157.594C9.99047 157.783 10.0502 157.965 10.1725 158.145C10.2059 158.152 10.238 158.161 10.2718 158.167C10.5392 158.217 10.806 158.266 11.0836 158.296C11.1761 158.306 11.274 158.316 11.3679 158.326C11.246 158.185 11.1204 158.049 11.0025 157.903C10.5409 157.329 10.1053 156.723 9.74936 156.075C9.38533 155.413 9.03143 154.734 8.79505 154.002C8.79437 153.999 8.79336 153.997 8.79269 153.994C8.7883 153.976 8.78728 153.953 8.78357 153.914C8.86124 154.012 9.06014 154.008 9.15672 154.032C9.69567 154.167 10.2681 154.325 10.8658 154.574C11.1761 154.703 11.4915 154.85 11.8089 155.014C11.968 155.096 12.1274 155.181 12.2874 155.271C12.3398 155.301 12.7173 155.571 12.7484 155.542C12.8071 155.487 12.7271 155.439 12.6873 155.395C12.4772 155.156 12.3006 154.913 12.0676 154.726C11.8299 154.534 11.5854 154.369 11.3395 154.225C10.8516 153.94 10.3596 153.74 9.88849 153.583C9.50521 153.455 9.13544 153.354 8.78559 153.256C8.4523 153.162 8.1038 153.112 7.82318 152.948C7.9255 152.736 8.02512 152.646 8.18856 152.548C8.64106 152.278 9.16448 152.258 9.7139 152.357C10.2924 152.46 10.8901 152.73 11.476 153.106C11.7519 153.283 12.0267 153.481 12.2999 153.694C14.2781 155.577 16.5366 157.273 18.9703 157.998C19.051 157.821 19.1324 157.637 19.2148 157.449C19.0824 157.484 18.9457 157.495 18.8075 157.485C18.536 157.465 18.2605 157.367 18.0099 157.236C17.2518 156.84 16.4724 156.413 15.7133 155.922C15.0349 155.483 17.3835 153.695 17.6854 153.52C18.4081 153.101 19.1628 152.752 19.7771 152.169C19.9418 152.014 19.9884 151.856 20.1445 152.019C20.4636 152.353 20.5328 153.327 20.5507 153.9C20.6912 153.464 20.83 153.017 20.9684 152.555C21.094 152.108 21.2163 151.646 21.3348 151.176C21.2879 151.281 21.2392 151.383 21.1953 151.492C21.0322 151.899 20.9529 152.32 20.8398 152.764C20.7986 152.665 20.7553 152.573 20.7212 152.477C20.5345 151.952 20.3724 151.409 20.4984 150.836C20.5683 150.517 20.6604 150.211 20.7496 149.91C20.8658 149.515 21.0197 149.174 21.0856 148.786C21.1481 148.417 21.1413 148.028 21.0636 147.656C20.991 147.306 20.8563 146.974 20.6753 146.683C20.5848 146.538 20.4828 146.403 20.371 146.281C20.2745 146.176 20.1965 146.119 20.1586 145.985C20.3987 145.997 20.6463 145.961 20.888 146.046C21.2804 146.184 21.659 146.408 22.0382 146.591C22.0946 146.618 22.1537 146.635 22.2165 146.653C22.2246 146.596 22.231 146.537 22.2388 146.479C21.842 146.175 21.4378 145.877 21.0262 145.611C20.5284 145.289 19.9922 145.202 19.463 145.281C19.0085 145.348 18.6549 145.605 18.2041 145.713C18.1382 145.729 17.6347 145.762 17.2657 145.748C17.0374 145.74 16.8611 145.713 16.8729 145.653C17.1286 144.346 18.6151 144.433 19.6372 144.51C20.5419 144.578 21.5047 144.778 22.3952 145.1C22.409 144.953 22.4256 144.808 22.4367 144.66C22.5127 143.949 22.5292 143.23 22.5654 142.505C22.5829 142.143 22.5708 141.781 22.5751 141.418C22.5724 141.054 22.586 140.688 22.5613 140.326C22.5285 139.599 22.5059 138.868 22.4232 138.147C22.3847 137.787 22.3651 137.422 22.3124 137.065C22.2604 136.707 22.2088 136.351 22.1571 135.996C22.1125 135.638 22.047 135.288 21.973 134.941C21.9031 134.592 21.8339 134.245 21.7647 133.9C21.6056 133.218 21.4243 132.549 21.2504 131.888C21.039 131.244 20.8485 130.599 20.6297 129.984C20.3916 129.379 20.1725 128.776 19.9324 128.204C19.6747 127.641 19.4248 127.094 19.1824 126.564C18.9105 126.053 18.6482 125.56 18.3962 125.085C18.1551 124.6 17.8634 124.186 17.6155 123.765C17.3548 123.357 17.1313 122.943 16.8739 122.601C16.3721 121.906 15.9605 121.265 15.5725 120.792C14.8046 119.832 14.3656 119.284 14.3656 119.284C14.3656 119.284 14.8488 119.779 15.6947 120.646C16.1236 121.075 16.5872 121.665 17.1525 122.308C17.4416 122.623 17.7003 123.011 17.9991 123.394C18.2858 123.789 18.6178 124.178 18.9038 124.64C19.2016 125.094 19.5116 125.567 19.8324 126.057C20.1269 126.572 20.4312 127.103 20.7442 127.65C21.041 128.211 21.3203 128.807 21.6202 129.408C21.9011 130.02 22.1561 130.668 22.434 131.318C22.6741 131.987 22.9233 132.668 23.1512 133.37C23.2546 133.726 23.3586 134.083 23.4633 134.443C23.5723 134.802 23.6723 135.166 23.7523 135.539C23.8388 135.91 23.9256 136.283 24.0127 136.657C24.1002 137.031 24.1549 137.415 24.2278 137.796C24.3801 138.558 24.4713 139.335 24.5709 140.113C24.629 140.501 24.6486 140.893 24.684 141.284C24.7124 141.675 24.7566 142.067 24.7711 142.458C24.7752 142.568 24.7796 142.679 24.784 142.789C24.7853 142.769 24.7857 142.749 24.787 142.729L24.8363 141.681L24.8299 140.63C24.8181 139.928 24.8377 139.226 24.7998 138.524C24.7543 137.824 24.7083 137.122 24.6621 136.419C24.6617 136.413 24.6563 136.331 24.6469 136.176C24.6418 136.021 24.6165 135.794 24.5766 135.498C24.4963 134.908 24.4027 134.036 24.2332 132.922C23.9958 131.825 23.7979 130.452 23.3268 128.934C23.2201 128.552 23.1097 128.156 22.9959 127.746C22.872 127.344 22.7055 126.958 22.5559 126.546C22.4026 126.136 22.2537 125.71 22.0342 125.309C21.8278 124.901 21.631 124.474 21.404 124.052C20.4697 122.374 19.203 120.71 17.7843 118.861C17.4291 118.405 17.0698 117.919 16.7034 117.424C16.5214 117.175 16.333 116.932 16.1509 116.672C15.971 116.408 15.7896 116.141 15.6069 115.873C15.4239 115.603 15.2402 115.332 15.0545 115.058C14.8812 114.778 14.707 114.495 14.531 114.21C14.1761 113.641 13.8185 113.062 13.4839 112.451C10.7202 107.632 8.24158 101.727 6.55684 94.9539C5.70789 91.5703 5.0781 87.971 4.71036 84.2141C4.33856 80.4579 4.22273 76.5394 4.46384 72.5366C4.55907 70.5312 4.79107 68.5157 5.05784 66.4794C5.2223 65.4695 5.36379 64.4435 5.5664 63.4296L5.86762 61.9011C5.96758 61.3889 6.0986 60.9064 6.21308 60.4042C7.11775 56.3689 8.3287 52.5575 9.43801 48.8723C10.549 45.188 11.632 41.634 12.3033 38.2725C12.51 37.421 12.6231 36.6 12.7531 35.7838L12.9456 34.5641L12.9929 34.2617L13.0179 33.9781L13.0682 33.4158C13.1901 31.9198 13.2333 30.4322 13.1296 29.0131C13.0273 27.6009 12.8642 26.2384 12.5437 25.0392C12.2304 23.844 11.8501 22.7659 11.3763 21.9372C10.8992 21.113 10.3781 20.5086 9.87667 20.1408C9.35055 19.8031 8.85381 19.6896 8.41988 19.6815C8.96592 19.0234 9.55283 18.4831 10.3653 18.1775C10.7688 18.0287 11.1727 18.0018 11.6759 18.0223C12.121 18.1117 12.6754 18.236 13.1864 18.5982C14.2514 19.2584 15.3976 20.6241 16.2891 22.7839C16.4113 23.0478 16.5126 23.3306 16.6072 23.6262C16.7058 23.9246 16.8054 24.227 16.9064 24.5334C16.9921 24.8499 17.0705 25.1772 17.1542 25.5117C17.24 25.8454 17.3214 26.1899 17.3771 26.5481C17.4396 26.9082 17.5034 27.2736 17.5675 27.643C17.6111 28.0229 17.6553 28.4067 17.6999 28.7945C17.7502 29.1876 17.7759 29.5883 17.7948 29.997C17.812 30.4053 17.8502 30.824 17.8475 31.2464C18.375 29.3829 18.8194 27.3294 19.0838 25.2811C19.3536 23.2327 19.4346 21.1944 19.3637 19.3735C19.281 17.5586 19.0351 15.9743 18.8359 14.7907C18.7988 14.4859 18.7373 14.2268 18.6927 13.987C18.6482 13.7471 18.614 13.5334 18.5928 13.3477C18.5499 12.9771 18.5566 12.7232 18.6262 12.6193C18.7316 12.5856 18.9176 12.6907 19.1763 12.9217C19.3053 13.0368 19.4529 13.184 19.617 13.3621C19.7811 13.539 19.9685 13.7435 20.136 13.9982C20.858 14.9813 21.7262 16.5034 22.4478 18.4554C23.1556 20.4035 23.7176 22.7562 24.0167 25.2245C24.3224 27.692 24.3754 30.2669 24.2379 32.6694C24.3993 32.1877 24.5219 31.6972 24.6651 31.2171C24.8063 30.7354 24.942 30.2561 25.0535 29.7732C25.172 29.2891 25.2895 28.8114 25.4053 28.3389C25.5043 27.8564 25.6019 27.3807 25.6988 26.9103C25.8035 26.4394 25.8825 25.9661 25.9558 25.4948C26.0321 25.0208 26.1077 24.5539 26.1817 24.0934C26.2374 23.6234 26.2924 23.1589 26.3468 22.7021C26.4059 22.2425 26.4555 21.7864 26.4809 21.3288C26.7821 17.6902 26.6217 14.2284 26.204 11.2251C26.0307 9.71465 25.7177 8.34776 25.5056 7.09117C25.2189 5.87068 25.0133 4.74484 24.8309 3.80791C24.4571 1.94047 24.4419 0.606477 25.0274 4.01511e-05C26.6534 2.53408 27.9579 5.30275 28.8913 8.136C29.7919 10.9741 30.3153 13.8209 30.573 16.5728C31.0353 22.0792 30.4612 27.1357 29.3833 31.7882C28.8548 34.1249 28.1558 36.3553 27.3626 38.522L27.06 39.3306L26.9084 39.7333L26.7476 40.1055L26.1054 41.5838C25.6772 42.5661 25.2594 43.5612 24.7931 44.4596C23.004 48.2149 21.0751 51.5155 19.3043 54.7273C15.688 61.1495 12.7953 67.0113 11.4513 73.7896C10.7347 77.1282 10.3582 80.5454 10.2583 83.9177C10.1536 87.2908 10.3312 90.6226 10.7645 93.8148C11.6144 100.208 13.4136 106.036 15.6603 110.86C15.9301 111.472 16.2252 112.055 16.52 112.627C16.6663 112.914 16.8111 113.199 16.9553 113.483C17.109 113.754 17.2616 114.023 17.4129 114.29C17.5652 114.557 17.7158 114.821 17.8657 115.084C18.0197 115.345 18.1859 115.599 18.3439 115.853C18.6613 116.36 18.9744 116.859 19.3009 117.349C20.5818 119.306 21.8238 121.177 22.7396 123.076C22.9625 123.553 23.1563 124.038 23.3569 124.498C23.57 124.951 23.7138 125.43 23.8601 125.889C24.0015 126.349 24.1626 126.79 24.2747 127.224C24.3754 127.659 24.473 128.081 24.5665 128.488C24.9876 130.101 25.1429 131.537 25.3483 132.684C25.486 133.846 25.558 134.751 25.6241 135.364C25.6572 135.67 25.6782 135.904 25.6795 136.065C25.6856 136.225 25.6893 136.31 25.6893 136.316C25.7163 137.041 25.7434 137.765 25.77 138.487C25.7889 139.208 25.7511 139.929 25.7447 140.647L25.7241 141.723L25.6478 142.793C25.5917 143.505 25.5546 144.218 25.4837 144.924C25.2159 147.403 24.8123 149.843 24.2957 152.243C24.3787 152.338 24.452 152.43 24.5108 152.508C25.1514 150.983 25.77 149.37 26.3161 147.662C27.0836 145.165 27.7219 142.494 28.0923 139.738C28.4766 136.981 28.5458 134.146 28.2561 131.369L28.2166 130.844C28.2034 130.668 28.1683 130.564 28.1467 130.42C28.0974 130.151 28.0535 129.881 28.014 129.609C27.9745 129.337 27.8684 129.062 27.8053 128.786C27.728 128.508 27.683 128.238 27.5594 127.937L27.2505 127.05C27.141 126.747 26.9857 126.41 26.8574 126.089L26.6558 125.603C26.5862 125.437 26.4957 125.248 26.4167 125.072L25.926 123.997L25.3726 122.811L25.095 122.215L24.8022 121.561L24.2194 120.253L23.6466 118.827L23.363 118.115L23.1165 117.421L22.6326 116.038C22.3205 115.113 22.044 114.177 21.7576 113.248C20.6834 109.508 19.9273 105.726 19.4576 102.026C18.5073 94.6198 18.7346 87.5655 19.5734 81.66C19.9881 78.7028 20.547 76.0252 21.1339 73.6829C21.4425 72.5157 21.7313 71.4236 22.049 70.4321C22.3418 69.431 22.6589 68.531 22.9415 67.7164C23.2124 66.897 23.5075 66.1886 23.7436 65.5638C23.9782 64.9377 24.1964 64.4147 24.3821 63.9955C24.7455 63.1516 24.9393 62.702 24.9393 62.702L24.9403 62.7012C25.2702 63.053 24.9076 65.2565 24.5104 68.1415C24.1005 71.0297 23.7226 74.6106 23.5737 77.7157C25.7849 72.9794 28.381 69.8485 30.6517 68.2442C31.2278 67.8447 31.7728 67.5307 32.2871 67.3C32.8088 67.0746 33.312 66.9407 33.7726 66.8801C34.6982 66.7618 35.4867 66.9599 36.1442 67.4488C33.2799 70.1545 30.6206 73.812 28.6029 78.1597ZM24.2852 176.828C24.3082 177.463 24.2849 178.05 24.3956 178.655C24.5084 179.273 24.6587 179.867 24.8245 180.429C25.1531 181.544 25.5701 182.547 26.0091 183.466C26.3664 184.214 26.7389 184.911 27.1005 185.589C27.1387 185.661 27.1809 185.733 27.2207 185.805C27.3943 185.443 27.5844 185.088 27.8242 184.763C27.8033 184.523 27.5537 184.231 27.4558 184.056C26.8858 183.038 26.3225 181.967 25.8176 180.731C25.5556 180.09 25.2952 179.411 25.045 178.702C24.9197 178.347 24.7992 177.986 24.6833 177.618C24.6452 177.497 24.4335 176.558 24.3622 176.545C24.2258 176.52 24.2805 176.708 24.2852 176.828ZM18.169 164.322C18.2379 164.394 18.3057 164.467 18.3689 164.546C18.712 164.978 18.9788 165.52 19.175 166.069C19.2003 166.14 19.2249 166.214 19.2499 166.286C19.3644 166.014 19.4772 165.742 19.5886 165.469C19.3077 164.838 19.0014 164.22 18.6667 163.619C18.5023 163.854 18.3361 164.089 18.169 164.322Z" fill="white"/>
<path d="M165.047 194.214C160.411 194.763 156.154 194.081 152.236 192.801C150.269 192.173 148.391 191.343 146.567 190.401L145.886 190.041L145.547 189.861L145.234 189.67L143.989 188.907C143.162 188.399 142.324 187.903 141.568 187.349C138.406 185.224 135.628 182.933 132.923 180.83C127.517 176.534 122.581 173.098 116.874 171.502C114.064 170.651 111.186 170.204 108.347 170.085C105.507 169.961 102.701 170.172 100.014 170.686C94.6313 171.696 89.7244 173.833 85.663 176.501C85.148 176.822 84.657 177.172 84.1755 177.522C83.9333 177.696 83.6936 177.868 83.4548 178.039C83.2265 178.222 83 178.403 82.7751 178.583C82.5502 178.764 82.3273 178.943 82.1061 179.121C81.8863 179.303 81.6732 179.501 81.4587 179.688C81.0316 180.066 80.6115 180.437 80.1985 180.825C78.5512 182.346 76.9759 183.821 75.3773 184.909C74.9754 185.174 74.5672 185.404 74.1798 185.642C73.7986 185.896 73.3957 186.066 73.0087 186.24C72.6217 186.408 72.2503 186.6 71.8846 186.733C71.5182 186.852 71.1633 186.968 70.8205 187.079C69.4627 187.579 68.2534 187.764 67.2869 188.008C66.3086 188.171 65.5468 188.257 65.0315 188.336C64.7735 188.375 64.576 188.4 64.4409 188.402C64.3061 188.409 64.2352 188.413 64.2298 188.413C63.6189 188.445 63.0101 188.477 62.4016 188.509C61.7941 188.532 61.1872 188.487 60.5828 188.479L59.6771 188.454L58.7761 188.364C58.1767 188.297 57.5767 188.253 56.9817 188.169C54.6023 187.806 52.2638 187.245 49.9712 186.5C47.6847 185.731 45.4408 184.8 43.2458 183.709C42.4917 183.683 41.7549 183.626 41.0414 183.55C41.4311 183.861 41.7988 184.191 42.0973 184.569C42.099 184.571 42.1 184.573 42.1017 184.575C42.1101 184.588 42.1169 184.607 42.1311 184.637C42.0325 184.583 41.8461 184.654 41.7475 184.668C41.2018 184.741 40.6013 184.812 39.9449 184.817C39.6038 184.82 39.2509 184.81 38.8889 184.787C38.7076 184.775 38.5246 184.761 38.3392 184.742C38.2784 184.736 37.8239 184.645 37.8009 184.681C37.7573 184.748 37.8509 184.759 37.9032 184.783C38.1811 184.908 38.4256 185.049 38.7093 185.122C38.999 185.197 39.2864 185.247 39.568 185.279C40.1266 185.343 40.6594 185.334 41.1528 185.3C41.5543 185.272 41.9312 185.227 42.281 185.19C42.6153 185.154 42.9483 185.077 43.232 185.122C43.1786 185.335 43.107 185.444 42.9787 185.58C42.6234 185.958 42.1524 186.152 41.6127 186.262C41.0447 186.378 40.4028 186.366 39.7298 186.263C39.4127 186.215 39.0885 186.15 38.7589 186.071C35.8105 185.055 32.6663 184.416 29.6535 184.998C29.5893 185.01 29.5292 185.01 29.4745 184.996C29.022 184.879 28.9362 183.926 29.0135 183.566C29.102 183.155 29.2925 182.771 29.5511 182.424C29.5386 182.266 29.5842 182.082 29.6231 181.911C29.8797 180.779 30.1914 179.655 30.3143 178.457C30.4362 177.273 30.4903 176.076 30.4794 174.878C30.4551 172.212 30.2086 169.52 29.4056 167.041C29.0946 166.081 28.6843 165.159 28.3037 164.241C28.3219 164.212 28.3395 164.185 28.3577 164.156C29.3279 164.821 30.2883 165.422 31.1106 166.187C32.0787 167.088 32.5728 168.331 32.5498 169.937C32.5272 171.507 32.4154 173.074 32.4684 174.636C32.4688 174.638 32.4684 174.641 32.4684 174.643C32.4657 174.753 32.4634 174.862 32.4607 174.972C32.4448 175.579 32.5113 176.149 32.6103 176.699L32.9439 176.192C32.9439 176.192 32.9743 176.223 33.0337 176.282C33.0631 176.311 33.0999 176.348 33.1435 176.391C33.1891 176.437 33.1837 176.421 33.2083 176.444C33.2296 176.461 33.2367 176.473 33.2728 176.506C33.3349 176.551 33.4028 176.601 33.4764 176.655C33.6135 176.765 33.8192 176.886 34.0259 177.027C34.4679 177.294 35.022 177.623 35.6957 177.946C36.3633 178.279 37.1407 178.618 38.0049 178.941C38.8666 179.277 39.8233 179.56 40.8425 179.836C41.8646 180.088 42.9544 180.313 44.0914 180.454C45.2277 180.586 46.412 180.68 47.6145 180.641C48.2179 180.647 48.821 180.581 49.4309 180.539C49.7355 180.517 50.0371 180.46 50.342 180.423C50.6456 180.376 50.9532 180.35 51.2534 180.278C51.8572 180.154 52.4657 180.041 53.0584 179.859C53.3555 179.772 53.6581 179.705 53.9502 179.601C54.2427 179.497 54.5344 179.394 54.8252 179.291C55.119 179.197 55.4043 179.078 55.6856 178.95C55.9689 178.827 56.2512 178.704 56.5312 178.582C57.0833 178.314 57.6209 178.022 58.1534 177.739C58.6664 177.414 59.1831 177.113 59.6724 176.782C60.1499 176.431 60.6284 176.1 61.0782 175.751C61.5185 175.381 61.9464 175.022 62.3607 174.673C62.7561 174.293 63.1381 173.925 63.5051 173.573C63.8827 173.231 64.1947 172.839 64.5165 172.496C64.8272 172.141 65.147 171.829 65.4026 171.485C65.9247 170.811 66.412 170.25 66.7622 169.737C67.474 168.719 67.8809 168.137 67.8809 168.137C67.8809 168.137 67.5236 168.765 66.8986 169.864C66.5903 170.42 66.1516 171.037 65.6805 171.78C65.4509 172.158 65.1571 172.508 64.8721 172.906C64.5753 173.29 64.2896 173.727 63.936 174.12C63.5913 174.524 63.2326 174.946 62.8612 175.382C62.4651 175.79 62.0561 176.211 61.6357 176.644C61.2021 177.06 60.7368 177.459 60.2694 177.884C59.7902 178.288 59.279 178.665 58.768 179.069C58.2372 179.431 57.6969 179.805 57.1373 180.156C56.852 180.32 56.5653 180.485 56.2766 180.65C55.9892 180.821 55.6967 180.982 55.3942 181.12C55.094 181.266 54.7924 181.412 54.4902 181.559C54.1876 181.706 53.8729 181.816 53.5629 181.947C52.9436 182.216 52.305 182.415 51.6661 182.624C51.348 182.738 51.0231 182.807 50.7003 182.895C50.3768 182.975 50.0546 183.073 49.7291 183.136C49.5319 183.174 49.3343 183.213 49.1375 183.252C49.8895 183.295 50.6689 183.322 51.4753 183.325C53.4781 183.301 55.6349 183.161 57.8576 182.781C60.0691 182.369 62.3438 181.734 64.5533 180.783C66.7696 179.847 68.8899 178.543 70.7959 176.897L71.1629 176.601C71.2858 176.502 71.3453 176.414 71.4405 176.323C71.6148 176.141 71.792 175.964 71.9734 175.792C72.1551 175.618 72.3057 175.375 72.4786 175.176C72.6457 174.961 72.823 174.783 72.9844 174.509L73.4883 173.759C73.6591 173.498 73.8324 173.173 74.0053 172.884L74.2663 172.439C74.3548 172.287 74.4493 172.101 74.5408 171.934L75.095 170.903L75.7005 169.753L76.0047 169.176L76.3441 168.555L77.0259 167.316L77.7978 166.03L78.1852 165.39L78.5766 164.797L79.361 163.624C79.8908 162.851 80.4467 162.11 80.9917 161.363C83.2255 158.434 85.6454 155.816 88.1419 153.535C93.1357 148.959 98.4422 145.776 103.198 143.786C105.577 142.784 107.819 142.067 109.829 141.542C110.838 141.297 111.782 141.068 112.666 140.918C113.546 140.736 114.362 140.63 115.099 140.528C115.834 140.413 116.498 140.376 117.073 140.319C117.648 140.259 118.139 140.233 118.538 140.222C119.335 140.191 119.76 140.174 119.76 140.174L119.762 140.175C119.662 140.688 117.864 141.379 115.546 142.365C113.221 143.338 110.4 144.68 108.042 146.03C112.602 146.033 116.165 147.213 118.447 148.795C119.02 149.199 119.516 149.614 119.935 150.037C120.354 150.47 120.696 150.927 120.964 151.377C121.5 152.281 121.735 153.197 121.694 154.117C118.314 152.449 114.332 151.458 110.153 151.468C105.973 151.452 101.592 152.329 97.4142 154.088C93.2286 155.827 89.2283 158.397 85.7184 161.585C83.9583 163.173 82.3063 164.899 80.8161 166.751C80.4335 167.196 80.0705 167.691 79.7088 168.184C79.5278 168.431 79.3475 168.677 79.1675 168.921C78.9919 169.166 78.8352 169.407 78.6694 169.649C77.9991 170.63 77.4095 171.555 76.831 172.436C75.6947 174.207 74.6803 175.557 73.6527 176.575C73.1661 177.126 72.6096 177.482 72.125 177.909C71.506 178.33 70.9022 178.74 70.3157 179.139C67.9083 180.631 65.5856 181.523 63.62 182.141C63.1229 182.284 62.6619 182.446 62.2128 182.56C61.7603 182.664 61.3345 182.762 60.9373 182.854C60.1532 183.067 59.4468 183.139 58.8866 183.249C58.6049 183.299 58.3554 183.345 58.1389 183.383C57.9214 183.418 57.7334 183.431 57.5831 183.45C57.2819 183.485 57.1221 183.504 57.1164 183.504C53.9404 183.866 50.756 183.853 47.5726 183.502C46.6041 183.637 45.6431 183.697 44.7006 183.716C46.4863 184.506 48.2986 185.191 50.1367 185.761C52.4127 186.44 54.7269 186.926 57.0681 187.208C57.6533 187.273 58.2422 187.295 58.8298 187.342L59.7125 187.4L60.5976 187.393C61.1879 187.378 61.7795 187.401 62.3702 187.356C62.9601 187.302 63.5504 187.248 64.1427 187.193C64.1474 187.192 64.2166 187.186 64.3467 187.175C64.478 187.169 64.6688 187.139 64.9174 187.091C65.4141 186.996 66.1489 186.885 67.087 186.683C68.0106 186.401 69.1665 186.166 70.444 185.607C70.7661 185.481 71.0994 185.349 71.4442 185.214C71.7829 185.067 72.1078 184.869 72.4553 184.691C72.8 184.509 73.1587 184.332 73.4964 184.071C73.8398 183.826 74.1991 183.592 74.5543 183.322C75.9672 182.213 77.3683 180.708 78.9254 179.023C79.309 178.601 79.7183 178.174 80.1353 177.739C80.3447 177.523 80.5497 177.299 80.7682 177.083C80.9907 176.869 81.2146 176.654 81.4412 176.437C81.6681 176.22 81.8964 176.001 82.127 175.78C82.3631 175.575 82.6015 175.368 82.8416 175.159C83.3201 174.738 83.8087 174.313 84.3227 173.915C88.3793 170.632 93.3508 167.689 99.0544 165.688C101.902 164.68 104.933 163.931 108.097 163.494C111.259 163.053 114.558 162.915 117.928 163.202C119.617 163.315 121.313 163.591 123.028 163.908C123.879 164.102 124.742 164.271 125.596 164.512L126.883 164.869C127.314 164.988 127.721 165.144 128.143 165.28C131.54 166.354 134.749 167.792 137.852 169.11C140.955 170.43 143.946 171.716 146.777 172.514C147.494 172.759 148.184 172.893 148.872 173.048L149.899 173.277L150.154 173.333L150.392 173.363L150.866 173.422C152.125 173.567 153.377 173.619 154.573 173.495C155.762 173.374 156.909 173.18 157.918 172.8C158.925 172.427 159.832 171.976 160.53 171.413C161.224 170.846 161.733 170.227 162.043 169.631C162.327 169.007 162.422 168.417 162.429 167.902C162.983 168.55 163.438 169.247 163.695 170.212C163.82 170.691 163.843 171.171 163.826 171.769C163.751 172.298 163.646 172.957 163.341 173.563C162.785 174.829 161.636 176.189 159.817 177.248C159.595 177.394 159.356 177.514 159.107 177.626C158.856 177.743 158.602 177.862 158.344 177.982C158.078 178.084 157.802 178.177 157.52 178.276C157.239 178.378 156.949 178.474 156.648 178.541C156.344 178.615 156.036 178.691 155.725 178.767C155.406 178.819 155.083 178.871 154.756 178.924C154.425 178.984 154.088 179.014 153.744 179.037C153.4 179.058 153.048 179.103 152.692 179.1C154.261 179.726 155.99 180.254 157.714 180.569C159.439 180.889 161.155 180.986 162.688 180.901C164.216 180.803 165.55 180.511 166.547 180.274C166.803 180.23 167.022 180.157 167.224 180.104C167.425 180.051 167.606 180.011 167.762 179.985C168.074 179.935 168.287 179.942 168.375 180.025C168.403 180.15 168.315 180.371 168.12 180.678C168.023 180.832 167.899 181.007 167.75 181.202C167.6 181.397 167.428 181.619 167.215 181.818C166.387 182.676 165.105 183.707 163.462 184.564C161.821 185.405 159.84 186.072 157.762 186.428C155.685 186.79 153.517 186.853 151.495 186.69C151.9 186.882 152.313 187.028 152.717 187.198C153.122 187.365 153.526 187.526 153.933 187.659C154.34 187.8 154.743 187.939 155.14 188.077C155.546 188.194 155.947 188.31 156.343 188.425C156.74 188.549 157.138 188.643 157.535 188.73C157.933 188.821 158.327 188.911 158.715 188.998C159.111 189.065 159.501 189.13 159.886 189.195C160.273 189.264 160.658 189.324 161.043 189.354C164.106 189.712 167.02 189.521 169.549 189.025C170.821 188.819 171.972 188.447 173.03 188.196C174.057 187.855 175.005 187.611 175.794 187.395C177.367 186.951 178.489 186.932 179 187.628C176.867 189.559 174.535 191.109 172.15 192.217C169.761 193.286 167.364 193.908 165.047 194.214ZM33.9762 177.692C33.9803 177.828 34.7083 178.428 35.4391 178.984C35.4408 178.983 35.4425 178.983 35.4445 178.982C34.7249 178.434 34.0093 177.841 33.9813 177.691C33.9799 177.692 33.9776 177.692 33.9762 177.692ZM38.533 181.082C37.3771 180.525 36.1276 180.258 34.8687 180.133C34.3808 180.084 33.8877 180.086 33.3991 180.066C33.3967 180.062 33.3937 180.057 33.3913 180.052C33.3937 180.058 33.3967 180.064 33.3991 180.069C33.8877 180.087 34.3808 180.084 34.8687 180.133C36.1273 180.26 37.3771 180.525 38.533 181.082C38.6107 181.12 38.6853 181.065 38.7623 181.105C39.0156 181.262 39.2698 181.466 39.5245 181.466H39.6626V181.566C39.259 181.414 39.0848 181.311 38.8315 181.154C38.7538 181.115 38.6107 181.12 38.533 181.082ZM40.0691 182.072C39.7419 181.978 38.1295 181.49 38.1051 181.269C38.1298 181.49 39.7419 181.978 40.0691 182.072ZM33.3751 180.029C33.3785 180.029 33.3812 180.034 33.3846 180.041C33.3819 180.035 33.3788 180.03 33.3761 180.025C33.3758 180.025 33.3758 180.026 33.3755 180.026C33.3755 180.026 33.3758 180.029 33.3758 180.029C33.3755 180.029 33.3755 180.029 33.3751 180.029ZM37.6202 179.393C37.8954 179.511 38.1713 179.632 38.4499 179.751C38.171 179.605 37.8958 179.492 37.6202 179.393ZM40.5531 180.38C40.5477 180.379 40.5429 180.388 40.5379 180.388C40.393 180.366 40.2464 180.347 40.0995 180.327C40.2464 180.353 40.393 180.376 40.5379 180.399C40.5433 180.4 40.548 180.4 40.5531 180.401C40.9971 180.483 41.4361 180.497 41.8619 180.544C41.4365 180.496 40.9971 180.461 40.5531 180.38ZM42.8912 181.256C42.8912 181.176 42.9243 181.097 42.9142 181.026C42.922 181.098 42.8912 181.178 42.8912 181.256Z" fill="white"/>
</svg>
